solid test
facet normal 4.511946372076635e-16 -1.0 1.3866076823490189e-32
  outer loop
    vertex 32.79309297307064 -78.54077135344495 -25.999999999999996
    vertex 27.793092973070642 -78.54077135344497 -18.0
    vertex 7.793092973070647 -78.54077135344497 -25.999999999999996
  endloop
endfacet
facet normal 4.511946372076635e-16 -1.0 1.3866076823490189e-32
  outer loop
    vertex 27.793092973070642 -78.54077135344497 -18.0
    vertex 32.79309297307064 -78.54077135344495 -25.999999999999996
    vertex 32.79309297307064 -78.54077135344495 2.0000000000000218
  endloop
endfacet
facet normal 4.511946372076635e-16 -1.0 1.3866076823490189e-32
  outer loop
    vertex 27.793092973070642 -78.54077135344497 -18.0
    vertex 32.79309297307064 -78.54077135344495 2.0000000000000218
    vertex 27.793092973070642 -78.54077135344497 -8.000000000000002
  endloop
endfacet
facet normal 4.511946372076635e-16 -1.0 1.3866076823490189e-32
  outer loop
    vertex 27.793092973070642 -78.54077135344497 -8.000000000000002
    vertex 32.79309297307064 -78.54077135344495 2.0000000000000218
    vertex 12.793092973070644 -78.54077135344497 -8.000000000000002
  endloop
endfacet
facet normal 4.511946372076635e-16 -1.0 1.3866076823490189e-32
  outer loop
    vertex 12.793092973070644 -78.54077135344497 -8.000000000000002
    vertex 32.79309297307064 -78.54077135344495 2.0000000000000218
    vertex 7.793092973070647 -78.54077135344497 -5.999999999999978
  endloop
endfacet
facet normal 4.511946372076635e-16 -1.0 1.3866076823490189e-32
  outer loop
    vertex 7.793092973070647 -78.54077135344497 -25.999999999999996
    vertex 12.793092973070644 -78.54077135344497 -18.0
    vertex 7.793092973070647 -78.54077135344497 -5.999999999999978
  endloop
endfacet
facet normal 4.511946372076635e-16 -1.0 1.3866076823490189e-32
  outer loop
    vertex 12.793092973070644 -78.54077135344497 -18.0
    vertex 7.793092973070647 -78.54077135344497 -25.999999999999996
    vertex 27.793092973070642 -78.54077135344497 -18.0
  endloop
endfacet
facet normal 4.511946372076635e-16 -1.0 1.3866076823490189e-32
  outer loop
    vertex 7.793092973070647 -78.54077135344497 -5.999999999999978
    vertex 12.793092973070644 -78.54077135344497 -18.0
    vertex 12.793092973070644 -78.54077135344497 -8.000000000000002
  endloop
endfacet
facet normal 0.30477572710378376 2.814051321497365e-17 -0.9524241471993242
  outer loop
    vertex 32.79309297307064 -78.54077135344495 2.0000000000000218
    vertex 7.793092973070647 -88.54077135344488 -5.999999999999978
    vertex 7.793092973070647 -78.54077135344497 -5.999999999999978
  endloop
endfacet
facet normal 0.30477572710378376 2.814051321497365e-17 -0.9524241471993242
  outer loop
    vertex 7.793092973070647 -88.54077135344488 -5.999999999999978
    vertex 32.79309297307064 -78.54077135344495 2.0000000000000218
    vertex 32.79309297307064 -88.54077135344487 2.0000000000000218
  endloop
endfacet
facet normal -0.0 -0.0 1.0
  outer loop
    vertex 27.793092973070642 -93.5407713534449 -18.0
    vertex 12.793092973070644 -88.54077135344488 -18.0
    vertex 12.793092973070644 -93.5407713534449 -18.0
  endloop
endfacet
facet normal -0.0 -0.0 1.0
  outer loop
    vertex 12.793092973070644 -88.54077135344488 -18.0
    vertex 27.793092973070642 -93.5407713534449 -18.0
    vertex 27.793092973070642 -88.54077135344488 -18.0
  endloop
endfacet
facet normal -0.0 -0.0 1.0
  outer loop
    vertex 27.793092973070642 -78.54077135344497 -18.0
    vertex 12.793092973070644 -73.54077135344495 -18.0
    vertex 12.793092973070644 -78.54077135344497 -18.0
  endloop
endfacet
facet normal -0.0 -0.0 1.0
  outer loop
    vertex 12.793092973070644 -73.54077135344495 -18.0
    vertex 27.793092973070642 -78.54077135344497 -18.0
    vertex 27.793092973070642 -73.54077135344495 -18.0
  endloop
endfacet
facet normal -1.0 0.0 0.0
  outer loop
    vertex 27.793092973070642 -88.54077135344488 -8.000000000000002
    vertex 27.793092973070642 -93.5407713534449 -18.0
    vertex 27.793092973070642 -93.5407713534449 -8.000000000000002
  endloop
endfacet
facet normal -1.0 0.0 0.0
  outer loop
    vertex 27.793092973070642 -93.5407713534449 -18.0
    vertex 27.793092973070642 -88.54077135344488 -8.000000000000002
    vertex 27.793092973070642 -88.54077135344488 -18.0
  endloop
endfacet
facet normal -1.0 0.0 0.0
  outer loop
    vertex 27.793092973070642 -73.54077135344495 -8.000000000000002
    vertex 27.793092973070642 -78.54077135344497 -18.0
    vertex 27.793092973070642 -78.54077135344497 -8.000000000000002
  endloop
endfacet
facet normal -1.0 0.0 0.0
  outer loop
    vertex 27.793092973070642 -78.54077135344497 -18.0
    vertex 27.793092973070642 -73.54077135344495 -8.000000000000002
    vertex 27.793092973070642 -73.54077135344495 -18.0
  endloop
endfacet
facet normal -4.511946372076636e-16 1.0 1.802589987053725e-31
  outer loop
    vertex 7.793092973070635 -88.54077135344488 -25.999999999999996
    vertex 12.793092973070644 -88.54077135344488 -18.0
    vertex 32.793092973070635 -88.54077135344487 -25.999999999999996
  endloop
endfacet
facet normal -4.511946372076636e-16 1.0 1.802589987053725e-31
  outer loop
    vertex 12.793092973070644 -88.54077135344488 -18.0
    vertex 7.793092973070635 -88.54077135344488 -25.999999999999996
    vertex 7.793092973070647 -88.54077135344488 -5.999999999999978
  endloop
endfacet
facet normal -4.511946372076636e-16 1.0 1.802589987053725e-31
  outer loop
    vertex 12.793092973070644 -88.54077135344488 -18.0
    vertex 7.793092973070647 -88.54077135344488 -5.999999999999978
    vertex 12.793092973070644 -88.54077135344488 -8.000000000000002
  endloop
endfacet
facet normal -4.511946372076636e-16 1.0 1.802589987053725e-31
  outer loop
    vertex 12.793092973070644 -88.54077135344488 -8.000000000000002
    vertex 7.793092973070647 -88.54077135344488 -5.999999999999978
    vertex 27.793092973070642 -88.54077135344488 -8.000000000000002
  endloop
endfacet
facet normal -4.511946372076636e-16 1.0 1.802589987053725e-31
  outer loop
    vertex 32.793092973070635 -88.54077135344487 -25.999999999999996
    vertex 27.793092973070642 -88.54077135344488 -18.0
    vertex 32.79309297307064 -88.54077135344487 2.0000000000000218
  endloop
endfacet
facet normal -4.511946372076636e-16 1.0 1.802589987053725e-31
  outer loop
    vertex 27.793092973070642 -88.54077135344488 -18.0
    vertex 32.793092973070635 -88.54077135344487 -25.999999999999996
    vertex 12.793092973070644 -88.54077135344488 -18.0
  endloop
endfacet
facet normal -4.511946372076636e-16 1.0 1.802589987053725e-31
  outer loop
    vertex 32.79309297307064 -88.54077135344487 2.0000000000000218
    vertex 27.793092973070642 -88.54077135344488 -18.0
    vertex 27.793092973070642 -88.54077135344488 -8.000000000000002
  endloop
endfacet
facet normal -4.511946372076636e-16 1.0 1.802589987053725e-31
  outer loop
    vertex 32.79309297307064 -88.54077135344487 2.0000000000000218
    vertex 27.793092973070642 -88.54077135344488 -8.000000000000002
    vertex 7.793092973070647 -88.54077135344488 -5.999999999999978
  endloop
endfacet
facet normal 2.819966482547895e-16 -3.1808843850774494e-31 1.0
  outer loop
    vertex 32.793092973070635 -88.54077135344487 -25.999999999999996
    vertex 7.793092973070647 -78.54077135344497 -25.999999999999996
    vertex 7.793092973070635 -88.54077135344488 -25.999999999999996
  endloop
endfacet
facet normal 2.819966482547895e-16 -3.1808843850774494e-31 1.0
  outer loop
    vertex 7.793092973070647 -78.54077135344497 -25.999999999999996
    vertex 32.793092973070635 -88.54077135344487 -25.999999999999996
    vertex 32.79309297307064 -78.54077135344495 -25.999999999999996
  endloop
endfacet
facet normal 1.0 -0.0 -0.0
  outer loop
    vertex 12.793092973070644 -88.54077135344488 -18.0
    vertex 12.793092973070644 -93.5407713534449 -8.000000000000002
    vertex 12.793092973070644 -93.5407713534449 -18.0
  endloop
endfacet
facet normal 1.0 -0.0 -0.0
  outer loop
    vertex 12.793092973070644 -93.5407713534449 -8.000000000000002
    vertex 12.793092973070644 -88.54077135344488 -18.0
    vertex 12.793092973070644 -88.54077135344488 -8.000000000000002
  endloop
endfacet
facet normal 1.0 -0.0 -0.0
  outer loop
    vertex 12.793092973070644 -73.54077135344495 -18.0
    vertex 12.793092973070644 -78.54077135344497 -8.000000000000002
    vertex 12.793092973070644 -78.54077135344497 -18.0
  endloop
endfacet
facet normal 1.0 -0.0 -0.0
  outer loop
    vertex 12.793092973070644 -78.54077135344497 -8.000000000000002
    vertex 12.793092973070644 -73.54077135344495 -18.0
    vertex 12.793092973070644 -73.54077135344495 -8.000000000000002
  endloop
endfacet
facet normal 0.0 0.0 -1.0
  outer loop
    vertex 27.793092973070642 -73.54077135344495 -8.000000000000002
    vertex 12.793092973070644 -78.54077135344497 -8.000000000000002
    vertex 12.793092973070644 -73.54077135344495 -8.000000000000002
  endloop
endfacet
facet normal 0.0 0.0 -1.0
  outer loop
    vertex 12.793092973070644 -78.54077135344497 -8.000000000000002
    vertex 27.793092973070642 -73.54077135344495 -8.000000000000002
    vertex 27.793092973070642 -78.54077135344497 -8.000000000000002
  endloop
endfacet
facet normal 0.0 0.0 -1.0
  outer loop
    vertex 27.793092973070642 -88.54077135344488 -8.000000000000002
    vertex 12.793092973070644 -93.5407713534449 -8.000000000000002
    vertex 12.793092973070644 -88.54077135344488 -8.000000000000002
  endloop
endfacet
facet normal 0.0 0.0 -1.0
  outer loop
    vertex 12.793092973070644 -93.5407713534449 -8.000000000000002
    vertex 27.793092973070642 -88.54077135344488 -8.000000000000002
    vertex 27.793092973070642 -93.5407713534449 -8.000000000000002
  endloop
endfacet
facet normal -1.0 1.9696767941828653e-17 4.583358020336417e-16
  outer loop
    vertex 7.793092973070647 -63.540771353444974 2.0000000000000218
    vertex 7.793092973070647 -103.54077135344491 -3.0
    vertex 7.793092973070647 -103.54077135344491 2.0000000000000218
  endloop
endfacet
facet normal -1.0 1.9696767941828653e-17 4.583358020336417e-16
  outer loop
    vertex 7.793092973070647 -103.54077135344491 -3.0
    vertex 7.793092973070647 -63.540771353444974 2.0000000000000218
    vertex 7.793092973070647 -93.54077135344488 -3.0
  endloop
endfacet
facet normal -1.0 1.9696767941828653e-17 4.583358020336417e-16
  outer loop
    vertex 7.793092973070647 -93.54077135344488 -3.0
    vertex 7.793092973070647 -63.540771353444974 2.0000000000000218
    vertex 7.793092973070647 -88.54077135344488 -5.999999999999978
  endloop
endfacet
facet normal -1.0 1.9696767941828653e-17 4.583358020336417e-16
  outer loop
    vertex 7.793092973070647 -93.54077135344488 -3.0
    vertex 7.793092973070647 -88.54077135344488 -5.999999999999978
    vertex 7.793092973070635 -93.54077135344488 -22.999999999999996
  endloop
endfacet
facet normal -1.0 1.9696767941828653e-17 4.583358020336417e-16
  outer loop
    vertex 7.793092973070647 -88.54077135344488 -5.999999999999978
    vertex 7.793092973070647 -63.540771353444974 2.0000000000000218
    vertex 7.793092973070647 -73.54077135344495 -2.999999999999978
  endloop
endfacet
facet normal -1.0 1.9696767941828653e-17 4.583358020336417e-16
  outer loop
    vertex 7.793092973070647 -88.54077135344488 -5.999999999999978
    vertex 7.793092973070647 -73.54077135344495 -2.999999999999978
    vertex 7.793092973070647 -78.54077135344497 -5.999999999999978
  endloop
endfacet
facet normal -1.0 1.9696767941828653e-17 4.583358020336417e-16
  outer loop
    vertex 7.793092973070647 -78.54077135344497 -5.999999999999978
    vertex 7.793092973070647 -73.54077135344495 -2.999999999999978
    vertex 7.793092973070647 -78.54077135344497 -25.999999999999996
  endloop
endfacet
facet normal -1.0 1.9696767941828653e-17 4.583358020336417e-16
  outer loop
    vertex 7.793092973070647 -73.54077135344495 -2.999999999999978
    vertex 7.793092973070647 -63.540771353444974 2.0000000000000218
    vertex 7.793092973070647 -63.540771353444974 -2.999999999999978
  endloop
endfacet
facet normal -1.0 1.9696767941828653e-17 4.583358020336417e-16
  outer loop
    vertex 7.793092973070635 -98.54077135344487 -21.999999999999993
    vertex 7.793092973070635 -108.5407713534449 -28.0
    vertex 7.793092973070635 -108.5407713534449 -21.999999999999993
  endloop
endfacet
facet normal -1.0 1.9696767941828653e-17 4.583358020336417e-16
  outer loop
    vertex 7.793092973070635 -108.5407713534449 -28.0
    vertex 7.793092973070635 -98.54077135344487 -21.999999999999993
    vertex 7.793092973070635 -98.54077135344487 -22.999999999999996
  endloop
endfacet
facet normal -1.0 1.9696767941828653e-17 4.583358020336417e-16
  outer loop
    vertex 7.793092973070635 -108.5407713534449 -28.0
    vertex 7.793092973070635 -98.54077135344487 -22.999999999999996
    vertex 7.793092973070635 -88.54077135344488 -25.999999999999996
  endloop
endfacet
facet normal -1.0 1.9696767941828653e-17 4.583358020336417e-16
  outer loop
    vertex 7.793092973070635 -108.5407713534449 -28.0
    vertex 7.793092973070635 -88.54077135344488 -25.999999999999996
    vertex 7.793092973070635 -73.54077135344495 -28.0
  endloop
endfacet
facet normal -1.0 1.9696767941828653e-17 4.583358020336417e-16
  outer loop
    vertex 7.793092973070635 -88.54077135344488 -25.999999999999996
    vertex 7.793092973070635 -98.54077135344487 -22.999999999999996
    vertex 7.793092973070635 -93.54077135344488 -22.999999999999996
  endloop
endfacet
facet normal -1.0 1.9696767941828653e-17 4.583358020336417e-16
  outer loop
    vertex 7.793092973070635 -88.54077135344488 -25.999999999999996
    vertex 7.793092973070635 -93.54077135344488 -22.999999999999996
    vertex 7.793092973070647 -88.54077135344488 -5.999999999999978
  endloop
endfacet
facet normal -1.0 1.9696767941828653e-17 4.583358020336417e-16
  outer loop
    vertex 7.793092973070635 -73.54077135344495 -28.0
    vertex 7.793092973070635 -88.54077135344488 -25.999999999999996
    vertex 7.793092973070647 -78.54077135344497 -25.999999999999996
  endloop
endfacet
facet normal -1.0 1.9696767941828653e-17 4.583358020336417e-16
  outer loop
    vertex 7.793092973070635 -73.54077135344495 -28.0
    vertex 7.793092973070647 -78.54077135344497 -25.999999999999996
    vertex 7.793092973070647 -73.54077135344495 -2.999999999999978
  endloop
endfacet
facet normal 0.0 -1.0 0.0
  outer loop
    vertex 32.79309297307064 -93.54077135344488 -22.999999999999996
    vertex 27.793092973070642 -93.5407713534449 -18.0
    vertex 7.793092973070635 -93.54077135344488 -22.999999999999996
  endloop
endfacet
facet normal 0.0 -1.0 0.0
  outer loop
    vertex 27.793092973070642 -93.5407713534449 -18.0
    vertex 32.79309297307064 -93.54077135344488 -22.999999999999996
    vertex 32.79309297307064 -93.54077135344488 -3.0
  endloop
endfacet
facet normal 0.0 -1.0 0.0
  outer loop
    vertex 27.793092973070642 -93.5407713534449 -18.0
    vertex 32.79309297307064 -93.54077135344488 -3.0
    vertex 27.793092973070642 -93.5407713534449 -8.000000000000002
  endloop
endfacet
facet normal 0.0 -1.0 0.0
  outer loop
    vertex 27.793092973070642 -93.5407713534449 -8.000000000000002
    vertex 32.79309297307064 -93.54077135344488 -3.0
    vertex 12.793092973070644 -93.5407713534449 -8.000000000000002
  endloop
endfacet
facet normal 0.0 -1.0 0.0
  outer loop
    vertex 7.793092973070635 -93.54077135344488 -22.999999999999996
    vertex 12.793092973070644 -93.5407713534449 -18.0
    vertex 7.793092973070647 -93.54077135344488 -3.0
  endloop
endfacet
facet normal 0.0 -1.0 0.0
  outer loop
    vertex 12.793092973070644 -93.5407713534449 -18.0
    vertex 7.793092973070635 -93.54077135344488 -22.999999999999996
    vertex 27.793092973070642 -93.5407713534449 -18.0
  endloop
endfacet
facet normal 0.0 -1.0 0.0
  outer loop
    vertex 7.793092973070647 -93.54077135344488 -3.0
    vertex 12.793092973070644 -93.5407713534449 -18.0
    vertex 12.793092973070644 -93.5407713534449 -8.000000000000002
  endloop
endfacet
facet normal 0.0 -1.0 0.0
  outer loop
    vertex 7.793092973070647 -93.54077135344488 -3.0
    vertex 12.793092973070644 -93.5407713534449 -8.000000000000002
    vertex 32.79309297307064 -93.54077135344488 -3.0
  endloop
endfacet
facet normal 0.0 -1.0 0.0
  outer loop
    vertex 32.79309297307064 -103.54077135344491 2.0000000000000218
    vertex 7.793092973070647 -103.54077135344491 -3.0
    vertex 32.79309297307064 -103.54077135344491 -3.0
  endloop
endfacet
facet normal 0.0 -1.0 0.0
  outer loop
    vertex 7.793092973070647 -103.54077135344491 -3.0
    vertex 32.79309297307064 -103.54077135344491 2.0000000000000218
    vertex 7.793092973070647 -103.54077135344491 2.0000000000000218
  endloop
endfacet
facet normal 0.0 0.0 -1.0
  outer loop
    vertex 32.79309297307064 -63.540771353444974 -2.999999999999978
    vertex 7.793092973070647 -73.54077135344495 -2.999999999999978
    vertex 7.793092973070647 -63.540771353444974 -2.999999999999978
  endloop
endfacet
facet normal 0.0 0.0 -1.0
  outer loop
    vertex 7.793092973070647 -73.54077135344495 -2.999999999999978
    vertex 32.79309297307064 -63.540771353444974 -2.999999999999978
    vertex 32.79309297307064 -73.54077135344495 -2.999999999999978
  endloop
endfacet
facet normal -0.0 1.0 -0.0
  outer loop
    vertex 7.793092973070647 -63.540771353444974 2.0000000000000218
    vertex 32.79309297307064 -63.540771353444974 -2.999999999999978
    vertex 7.793092973070647 -63.540771353444974 -2.999999999999978
  endloop
endfacet
facet normal -0.0 1.0 -0.0
  outer loop
    vertex 32.79309297307064 -63.540771353444974 -2.999999999999978
    vertex 7.793092973070647 -63.540771353444974 2.0000000000000218
    vertex 32.79309297307064 -63.540771353444974 2.0000000000000218
  endloop
endfacet
facet normal -0.8479983040050879 -1.1863222769846951e-17 0.5299989400031802
  outer loop
    vertex 7.793092973070647 -63.540771353444974 2.0000000000000218
    vertex 7.793092973070647 -103.54077135344491 2.0000000000000218
    vertex 20.293092973070635 -83.5407713534449 21.999999999999993
  endloop
endfacet
facet normal 0.0 0.0 -1.0
  outer loop
    vertex 32.79309297307064 -73.54077135344495 -28.0
    vertex 7.793092973070635 -108.5407713534449 -28.0
    vertex 7.793092973070635 -73.54077135344495 -28.0
  endloop
endfacet
facet normal 0.0 0.0 -1.0
  outer loop
    vertex 7.793092973070635 -108.5407713534449 -28.0
    vertex 32.79309297307064 -73.54077135344495 -28.0
    vertex 32.79309297307064 -108.5407713534449 -28.0
  endloop
endfacet
facet normal 4.0518434025776166e-17 0.7071067811865486 0.7071067811865466
  outer loop
    vertex 20.293092973070635 -83.5407713534449 21.999999999999993
    vertex 32.79309297307064 -63.540771353444974 2.0000000000000218
    vertex 7.793092973070647 -63.540771353444974 2.0000000000000218
  endloop
endfacet
facet normal 0.0 -1.0 0.0
  outer loop
    vertex 32.79309297307064 -108.5407713534449 -16.999999999999996
    vertex 7.793092973070635 -108.5407713534449 -28.0
    vertex 32.79309297307064 -108.5407713534449 -28.0
  endloop
endfacet
facet normal 0.0 -1.0 0.0
  outer loop
    vertex 7.793092973070635 -108.5407713534449 -28.0
    vertex 32.79309297307064 -108.5407713534449 -16.999999999999996
    vertex 7.793092973070635 -108.5407713534449 -21.999999999999993
  endloop
endfacet
facet normal 4.051843402577748e-17 -0.7071067811865469 0.7071067811865481
  outer loop
    vertex 32.79309297307064 -103.54077135344491 2.0000000000000218
    vertex 20.293092973070635 -83.5407713534449 21.999999999999993
    vertex 7.793092973070647 -103.54077135344491 2.0000000000000218
  endloop
endfacet
facet normal -0.0 1.0 -0.0
  outer loop
    vertex 7.793092973070635 -73.54077135344495 -28.0
    vertex 12.793092973070644 -73.54077135344495 -18.0
    vertex 32.79309297307064 -73.54077135344495 -28.0
  endloop
endfacet
facet normal -0.0 1.0 -0.0
  outer loop
    vertex 12.793092973070644 -73.54077135344495 -18.0
    vertex 7.793092973070635 -73.54077135344495 -28.0
    vertex 7.793092973070647 -73.54077135344495 -2.999999999999978
  endloop
endfacet
facet normal -0.0 1.0 -0.0
  outer loop
    vertex 12.793092973070644 -73.54077135344495 -18.0
    vertex 7.793092973070647 -73.54077135344495 -2.999999999999978
    vertex 12.793092973070644 -73.54077135344495 -8.000000000000002
  endloop
endfacet
facet normal -0.0 1.0 -0.0
  outer loop
    vertex 12.793092973070644 -73.54077135344495 -8.000000000000002
    vertex 7.793092973070647 -73.54077135344495 -2.999999999999978
    vertex 27.793092973070642 -73.54077135344495 -8.000000000000002
  endloop
endfacet
facet normal -0.0 1.0 -0.0
  outer loop
    vertex 32.79309297307064 -73.54077135344495 -28.0
    vertex 27.793092973070642 -73.54077135344495 -18.0
    vertex 32.79309297307064 -73.54077135344495 -2.999999999999978
  endloop
endfacet
facet normal -0.0 1.0 -0.0
  outer loop
    vertex 27.793092973070642 -73.54077135344495 -18.0
    vertex 32.79309297307064 -73.54077135344495 -28.0
    vertex 12.793092973070644 -73.54077135344495 -18.0
  endloop
endfacet
facet normal -0.0 1.0 -0.0
  outer loop
    vertex 32.79309297307064 -73.54077135344495 -2.999999999999978
    vertex 27.793092973070642 -73.54077135344495 -18.0
    vertex 27.793092973070642 -73.54077135344495 -8.000000000000002
  endloop
endfacet
facet normal -0.0 1.0 -0.0
  outer loop
    vertex 32.79309297307064 -73.54077135344495 -2.999999999999978
    vertex 27.793092973070642 -73.54077135344495 -8.000000000000002
    vertex 7.793092973070647 -73.54077135344495 -2.999999999999978
  endloop
endfacet
facet normal 0.0 0.0 -1.0
  outer loop
    vertex 32.79309297307064 -93.54077135344488 -3.0
    vertex 7.793092973070647 -103.54077135344491 -3.0
    vertex 7.793092973070647 -93.54077135344488 -3.0
  endloop
endfacet
facet normal 0.0 0.0 -1.0
  outer loop
    vertex 7.793092973070647 -103.54077135344491 -3.0
    vertex 32.79309297307064 -93.54077135344488 -3.0
    vertex 32.79309297307064 -103.54077135344491 -3.0
  endloop
endfacet
facet normal -0.0 -0.0 1.0
  outer loop
    vertex 32.79309297307064 -98.54077135344487 -22.999999999999996
    vertex 7.793092973070635 -93.54077135344488 -22.999999999999996
    vertex 7.793092973070635 -98.54077135344487 -22.999999999999996
  endloop
endfacet
facet normal -0.0 -0.0 1.0
  outer loop
    vertex 7.793092973070635 -93.54077135344488 -22.999999999999996
    vertex 32.79309297307064 -98.54077135344487 -22.999999999999996
    vertex 32.79309297307064 -93.54077135344488 -22.999999999999996
  endloop
endfacet
facet normal 0.8479983040050876 1.5631540590856535e-17 0.5299989400031807
  outer loop
    vertex 32.79309297307064 -88.54077135344487 2.0000000000000218
    vertex 20.293092973070635 -83.5407713534449 21.999999999999993
    vertex 32.79309297307064 -103.54077135344491 2.0000000000000218
  endloop
endfacet
facet normal 0.8479983040050876 1.5631540590856535e-17 0.5299989400031807
  outer loop
    vertex 20.293092973070635 -83.5407713534449 21.999999999999993
    vertex 32.79309297307064 -88.54077135344487 2.0000000000000218
    vertex 32.79309297307064 -78.54077135344495 2.0000000000000218
  endloop
endfacet
facet normal 0.8479983040050876 1.5631540590856535e-17 0.5299989400031807
  outer loop
    vertex 20.293092973070635 -83.5407713534449 21.999999999999993
    vertex 32.79309297307064 -78.54077135344495 2.0000000000000218
    vertex 32.79309297307064 -63.540771353444974 2.0000000000000218
  endloop
endfacet
facet normal -0.0 1.0 -0.0
  outer loop
    vertex 32.79309297307064 -98.54077135344487 -16.999999999999996
    vertex 32.79309297307064 -98.54077135344487 -21.999999999999993
    vertex 7.793092973070635 -98.54077135344487 -21.999999999999993
  endloop
endfacet
facet normal -0.1961161351381839 -0.0 0.9805806756909203
  outer loop
    vertex 32.79309297307064 -108.5407713534449 -16.999999999999996
    vertex 7.793092973070635 -98.54077135344487 -21.999999999999993
    vertex 7.793092973070635 -108.5407713534449 -21.999999999999993
  endloop
endfacet
facet normal -0.1961161351381839 -0.0 0.9805806756909203
  outer loop
    vertex 7.793092973070635 -98.54077135344487 -21.999999999999993
    vertex 32.79309297307064 -108.5407713534449 -16.999999999999996
    vertex 32.79309297307064 -98.54077135344487 -16.999999999999996
  endloop
endfacet
facet normal -0.0 1.0 -0.0
  outer loop
    vertex 7.793092973070635 -98.54077135344487 -21.999999999999993
    vertex 32.79309297307064 -98.54077135344487 -22.999999999999996
    vertex 7.793092973070635 -98.54077135344487 -22.999999999999996
  endloop
endfacet
facet normal -0.0 1.0 -0.0
  outer loop
    vertex 32.79309297307064 -98.54077135344487 -22.999999999999996
    vertex 7.793092973070635 -98.54077135344487 -21.999999999999993
    vertex 32.79309297307064 -98.54077135344487 -21.999999999999993
  endloop
endfacet
facet normal 1.0 1.7906052289992537e-17 -6.912547049971854e-17
  outer loop
    vertex 32.79309297307064 -108.5407713534449 -28.0
    vertex 32.79309297307064 -98.54077135344487 -22.999999999999996
    vertex 32.79309297307064 -108.5407713534449 -16.999999999999996
  endloop
endfacet
facet normal 1.0 1.7906052289992537e-17 -6.912547049971854e-17
  outer loop
    vertex 32.79309297307064 -98.54077135344487 -22.999999999999996
    vertex 32.79309297307064 -108.5407713534449 -28.0
    vertex 32.793092973070635 -88.54077135344487 -25.999999999999996
  endloop
endfacet
facet normal 1.0 1.7906052289992537e-17 -6.912547049971854e-17
  outer loop
    vertex 32.793092973070635 -88.54077135344487 -25.999999999999996
    vertex 32.79309297307064 -108.5407713534449 -28.0
    vertex 32.79309297307064 -73.54077135344495 -28.0
  endloop
endfacet
facet normal 1.0 1.7906052289992537e-17 -6.912547049971854e-17
  outer loop
    vertex 32.79309297307064 -98.54077135344487 -22.999999999999996
    vertex 32.793092973070635 -88.54077135344487 -25.999999999999996
    vertex 32.79309297307064 -93.54077135344488 -22.999999999999996
  endloop
endfacet
facet normal 1.0 1.7906052289992537e-17 -6.912547049971854e-17
  outer loop
    vertex 32.79309297307064 -93.54077135344488 -22.999999999999996
    vertex 32.793092973070635 -88.54077135344487 -25.999999999999996
    vertex 32.79309297307064 -93.54077135344488 -3.0
  endloop
endfacet
facet normal 1.0 1.7906052289992537e-17 -6.912547049971854e-17
  outer loop
    vertex 32.793092973070635 -88.54077135344487 -25.999999999999996
    vertex 32.79309297307064 -73.54077135344495 -28.0
    vertex 32.79309297307064 -78.54077135344495 -25.999999999999996
  endloop
endfacet
facet normal 1.0 1.7906052289992537e-17 -6.912547049971854e-17
  outer loop
    vertex 32.79309297307064 -78.54077135344495 -25.999999999999996
    vertex 32.79309297307064 -73.54077135344495 -28.0
    vertex 32.79309297307064 -78.54077135344495 2.0000000000000218
  endloop
endfacet
facet normal 1.0 1.7906052289992537e-17 -6.912547049971854e-17
  outer loop
    vertex 32.79309297307064 -78.54077135344495 2.0000000000000218
    vertex 32.79309297307064 -73.54077135344495 -28.0
    vertex 32.79309297307064 -73.54077135344495 -2.999999999999978
  endloop
endfacet
facet normal 1.0 1.7906052289992537e-17 -6.912547049971854e-17
  outer loop
    vertex 32.79309297307064 -78.54077135344495 2.0000000000000218
    vertex 32.79309297307064 -73.54077135344495 -2.999999999999978
    vertex 32.79309297307064 -63.540771353444974 2.0000000000000218
  endloop
endfacet
facet normal 1.0 1.7906052289992537e-17 -6.912547049971854e-17
  outer loop
    vertex 32.79309297307064 -63.540771353444974 2.0000000000000218
    vertex 32.79309297307064 -73.54077135344495 -2.999999999999978
    vertex 32.79309297307064 -63.540771353444974 -2.999999999999978
  endloop
endfacet
facet normal 1.0 1.7906052289992537e-17 -6.912547049971854e-17
  outer loop
    vertex 32.79309297307064 -93.54077135344488 -3.0
    vertex 32.79309297307064 -103.54077135344491 2.0000000000000218
    vertex 32.79309297307064 -103.54077135344491 -3.0
  endloop
endfacet
facet normal 1.0 1.7906052289992537e-17 -6.912547049971854e-17
  outer loop
    vertex 32.79309297307064 -103.54077135344491 2.0000000000000218
    vertex 32.79309297307064 -93.54077135344488 -3.0
    vertex 32.79309297307064 -88.54077135344487 2.0000000000000218
  endloop
endfacet
facet normal 1.0 1.7906052289992537e-17 -6.912547049971854e-17
  outer loop
    vertex 32.79309297307064 -88.54077135344487 2.0000000000000218
    vertex 32.79309297307064 -93.54077135344488 -3.0
    vertex 32.793092973070635 -88.54077135344487 -25.999999999999996
  endloop
endfacet
facet normal 1.0 1.7906052289992537e-17 -6.912547049971854e-17
  outer loop
    vertex 32.79309297307064 -98.54077135344487 -22.999999999999996
    vertex 32.79309297307064 -98.54077135344487 -16.999999999999996
    vertex 32.79309297307064 -108.5407713534449 -16.999999999999996
  endloop
endfacet
facet normal 1.0 1.7906052289992537e-17 -6.912547049971854e-17
  outer loop
    vertex 32.79309297307064 -98.54077135344487 -16.999999999999996
    vertex 32.79309297307064 -98.54077135344487 -22.999999999999996
    vertex 32.79309297307064 -98.54077135344487 -21.999999999999993
  endloop
endfacet
endsolid test
