solid STLtool_examples
facet normal 0.2581988897471603 0.06918418399436403 0.9636113749942806
  outer loop
    vertex 118.78423191115738 19.01312157051653 65.98076211353315
    vertex 116.774612967924 26.513121570516542 65.98076211353315
    vertex 103.78423191115738 19.013121570516528 69.99999999999999
  endloop
endfacet
facet normal 0.684550319445298 0.6845503194452975 0.2505628070857317
  outer loop
    vertex 129.7649940246905 34.01312157051653 39.99999999999999
    vertex 116.77461296792394 41.513121570516525 55.0
    vertex 126.28423191115736 32.003502627283105 55.0
  endloop
endfacet
facet normal 0.684550319445298 0.6845503194452975 0.2505628070857317
  outer loop
    vertex 116.77461296792394 41.513121570516525 55.0
    vertex 129.7649940246905 34.01312157051653 39.99999999999999
    vertex 118.78423191115738 44.993883684049685 39.99999999999999
  endloop
endfacet
facet normal 0.6947465906068673 0.186156787897386 0.6947465906068642
  outer loop
    vertex 129.7649940246905 19.01312157051654 55.0
    vertex 116.774612967924 26.513121570516542 65.98076211353315
    vertex 118.78423191115738 19.01312157051653 65.98076211353315
  endloop
endfacet
facet normal 0.6947465906068673 0.186156787897386 0.6947465906068642
  outer loop
    vertex 116.774612967924 26.513121570516542 65.98076211353315
    vertex 129.7649940246905 19.01312157051654 55.0
    vertex 126.28423191115736 32.003502627283105 55.0
  endloop
endfacet
facet normal 0.6947465906068679 0.18615678789738624 -0.6947465906068635
  outer loop
    vertex 116.774612967924 26.513121570516557 14.019237886466842
    vertex 129.76499402469054 19.013121570516535 25.00000000000001
    vertex 118.78423191115739 19.013121570516535 14.019237886466842
  endloop
endfacet
facet normal 0.6947465906068679 0.18615678789738624 -0.6947465906068635
  outer loop
    vertex 129.76499402469054 19.013121570516535 25.00000000000001
    vertex 116.774612967924 26.513121570516557 14.019237886466842
    vertex 126.28423191115736 32.00350262728312 25.00000000000001
  endloop
endfacet
facet normal 0.684550319445298 0.6845503194452977 -0.25056280708573153
  outer loop
    vertex 116.77461296792394 41.513121570516546 25.00000000000001
    vertex 129.7649940246905 34.01312157051653 39.99999999999999
    vertex 126.28423191115736 32.00350262728312 25.00000000000001
  endloop
endfacet
facet normal 0.684550319445298 0.6845503194452977 -0.25056280708573153
  outer loop
    vertex 129.7649940246905 34.01312157051653 39.99999999999999
    vertex 116.77461296792394 41.513121570516546 25.00000000000001
    vertex 118.78423191115738 44.993883684049685 39.99999999999999
  endloop
endfacet
facet normal 0.9351131265310292 0.250562807085732 0.2505628070857318
  outer loop
    vertex 129.7649940246905 34.01312157051653 39.99999999999999
    vertex 129.7649940246905 19.01312157051654 55.0
    vertex 133.78423191115738 19.013121570516535 39.99999999999999
  endloop
endfacet
facet normal 0.9351131265310292 0.250562807085732 0.2505628070857318
  outer loop
    vertex 129.7649940246905 19.01312157051654 55.0
    vertex 129.7649940246905 34.01312157051653 39.99999999999999
    vertex 126.28423191115736 32.003502627283105 55.0
  endloop
endfacet
facet normal 0.5085898027094814 0.508589802709481 0.6947465906068644
  outer loop
    vertex 116.774612967924 26.513121570516542 65.98076211353315
    vertex 116.77461296792394 41.513121570516525 55.0
    vertex 111.28423191115739 32.00350262728313 65.98076211353315
  endloop
endfacet
facet normal 0.5085898027094814 0.508589802709481 0.6947465906068644
  outer loop
    vertex 116.77461296792394 41.513121570516525 55.0
    vertex 116.774612967924 26.513121570516542 65.98076211353315
    vertex 126.28423191115736 32.003502627283105 55.0
  endloop
endfacet
facet normal 0.18901470575279658 0.18901470575279616 0.9636113749942804
  outer loop
    vertex 116.774612967924 26.513121570516542 65.98076211353315
    vertex 111.28423191115739 32.00350262728313 65.98076211353315
    vertex 103.78423191115738 19.013121570516528 69.99999999999999
  endloop
endfacet
facet normal 0.9351131265310291 0.250562807085732 -0.2505628070857322
  outer loop
    vertex 126.28423191115736 32.00350262728312 25.00000000000001
    vertex 133.78423191115738 19.013121570516535 39.99999999999999
    vertex 129.76499402469054 19.013121570516535 25.00000000000001
  endloop
endfacet
facet normal 0.9351131265310291 0.250562807085732 -0.2505628070857322
  outer loop
    vertex 133.78423191115738 19.013121570516535 39.99999999999999
    vertex 126.28423191115736 32.00350262728312 25.00000000000001
    vertex 129.7649940246905 34.01312157051653 39.99999999999999
  endloop
endfacet
facet normal 0.2581988897471614 0.06918418399436359 -0.9636113749942803
  outer loop
    vertex 118.78423191115739 19.013121570516535 14.019237886466842
    vertex 103.78423191115738 19.013121570516535 9.999999999999993
    vertex 116.774612967924 26.513121570516557 14.019237886466842
  endloop
endfacet
facet normal 0.6947465906068665 -0.1861567878973855 -0.694746590606865
  outer loop
    vertex 116.77461296792397 11.513121570516514 14.019237886466842
    vertex 129.76499402469054 19.013121570516535 25.00000000000001
    vertex 126.28423191115738 6.022740513749938 25.00000000000001
  endloop
endfacet
facet normal 0.6947465906068665 -0.1861567878973855 -0.694746590606865
  outer loop
    vertex 129.76499402469054 19.013121570516535 25.00000000000001
    vertex 116.77461296792397 11.513121570516514 14.019237886466842
    vertex 118.78423191115739 19.013121570516535 14.019237886466842
  endloop
endfacet
facet normal 0.25819888974716126 -0.0691841839943644 -0.9636113749942803
  outer loop
    vertex 118.78423191115739 19.013121570516535 14.019237886466842
    vertex 116.77461296792397 11.513121570516514 14.019237886466842
    vertex 103.78423191115738 19.013121570516535 9.999999999999993
  endloop
endfacet
facet normal 0.9351131265310296 -0.2505628070857317 -0.2505628070857307
  outer loop
    vertex 126.28423191115738 6.022740513749938 25.00000000000001
    vertex 133.78423191115738 19.013121570516535 39.99999999999999
    vertex 129.7649940246905 4.0131215705165255 39.99999999999999
  endloop
endfacet
facet normal 0.9351131265310296 -0.2505628070857317 -0.2505628070857307
  outer loop
    vertex 133.78423191115738 19.013121570516535 39.99999999999999
    vertex 126.28423191115738 6.022740513749938 25.00000000000001
    vertex 129.76499402469054 19.013121570516535 25.00000000000001
  endloop
endfacet
facet normal 0.9351131265310293 -0.2505628070857317 0.25056280708573186
  outer loop
    vertex 133.78423191115738 19.013121570516535 39.99999999999999
    vertex 126.28423191115736 6.022740513749955 55.0
    vertex 129.7649940246905 4.0131215705165255 39.99999999999999
  endloop
endfacet
facet normal 0.9351131265310293 -0.2505628070857317 0.25056280708573186
  outer loop
    vertex 126.28423191115736 6.022740513749955 55.0
    vertex 133.78423191115738 19.013121570516535 39.99999999999999
    vertex 129.7649940246905 19.01312157051654 55.0
  endloop
endfacet
facet normal 0.06918418399436418 -0.25819888974716115 0.9636113749942803
  outer loop
    vertex 111.28423191115736 6.02274051374994 65.98076211353315
    vertex 103.78423191115738 19.013121570516528 69.99999999999999
    vertex 103.78423191115738 4.013121570516527 65.98076211353315
  endloop
endfacet
facet normal 0.6845503194452972 -0.6845503194452983 0.25056280708573186
  outer loop
    vertex 126.28423191115736 6.022740513749955 55.0
    vertex 118.78423191115735 -6.967640543016629 39.99999999999999
    vertex 129.7649940246905 4.0131215705165255 39.99999999999999
  endloop
endfacet
facet normal 0.6845503194452972 -0.6845503194452983 0.25056280708573186
  outer loop
    vertex 118.78423191115735 -6.967640543016629 39.99999999999999
    vertex 126.28423191115736 6.022740513749955 55.0
    vertex 116.77461296792393 -3.486878429483462 55.0
  endloop
endfacet
facet normal 0.5085898027094802 -0.5085898027094807 0.6947465906068656
  outer loop
    vertex 116.77461296792393 -3.486878429483462 55.0
    vertex 116.77461296792394 11.513121570516528 65.98076211353315
    vertex 111.28423191115736 6.02274051374994 65.98076211353315
  endloop
endfacet
facet normal 0.5085898027094802 -0.5085898027094807 0.6947465906068656
  outer loop
    vertex 116.77461296792394 11.513121570516528 65.98076211353315
    vertex 116.77461296792393 -3.486878429483462 55.0
    vertex 126.28423191115736 6.022740513749955 55.0
  endloop
endfacet
facet normal -0.2505628070857317 -0.9351131265310298 -0.2505628070857298
  outer loop
    vertex 103.78423191115738 -10.986878429483456 39.99999999999999
    vertex 90.79385085439077 -3.486878429483481 25.00000000000001
    vertex 103.78423191115735 -6.9676405430166435 25.00000000000001
  endloop
endfacet
facet normal -0.2505628070857317 -0.9351131265310298 -0.2505628070857298
  outer loop
    vertex 90.79385085439077 -3.486878429483481 25.00000000000001
    vertex 103.78423191115738 -10.986878429483456 39.99999999999999
    vertex 88.78423191115738 -6.967640543016612 39.99999999999999
  endloop
endfacet
facet normal -0.18901470575279666 -0.1890147057527967 -0.9636113749942803
  outer loop
    vertex 103.78423191115738 19.013121570516535 9.999999999999993
    vertex 96.28423191115735 6.022740513749936 14.019237886466842
    vertex 90.79385085439077 11.513121570516518 14.019237886466842
  endloop
endfacet
facet normal -0.25056280708573164 -0.9351131265310294 0.2505628070857311
  outer loop
    vertex 103.78423191115735 -6.967640543016612 55.0
    vertex 88.78423191115738 -6.967640543016612 39.99999999999999
    vertex 103.78423191115738 -10.986878429483456 39.99999999999999
  endloop
endfacet
facet normal -0.25056280708573164 -0.9351131265310294 0.2505628070857311
  outer loop
    vertex 88.78423191115738 -6.967640543016612 39.99999999999999
    vertex 103.78423191115735 -6.967640543016612 55.0
    vertex 90.79385085439078 -3.486878429483458 55.0
  endloop
endfacet
facet normal -0.18615678789738557 -0.6947465906068662 -0.6947465906068654
  outer loop
    vertex 103.78423191115735 -6.9676405430166435 25.00000000000001
    vertex 96.28423191115735 6.022740513749936 14.019237886466842
    vertex 103.78423191115738 4.013121570516507 14.019237886466842
  endloop
endfacet
facet normal -0.18615678789738557 -0.6947465906068662 -0.6947465906068654
  outer loop
    vertex 96.28423191115735 6.022740513749936 14.019237886466842
    vertex 103.78423191115735 -6.9676405430166435 25.00000000000001
    vertex 90.79385085439077 -3.486878429483481 25.00000000000001
  endloop
endfacet
facet normal 0.6947465906068658 -0.1861567878973856 0.6947465906068658
  outer loop
    vertex 129.7649940246905 19.01312157051654 55.0
    vertex 116.77461296792394 11.513121570516528 65.98076211353315
    vertex 126.28423191115736 6.022740513749955 55.0
  endloop
endfacet
facet normal 0.6947465906068658 -0.1861567878973856 0.6947465906068658
  outer loop
    vertex 116.77461296792394 11.513121570516528 65.98076211353315
    vertex 129.7649940246905 19.01312157051654 55.0
    vertex 118.78423191115738 19.01312157051653 65.98076211353315
  endloop
endfacet
facet normal 0.18901470575279697 -0.18901470575279686 -0.9636113749942803
  outer loop
    vertex 116.77461296792397 11.513121570516514 14.019237886466842
    vertex 111.28423191115739 6.022740513749926 14.019237886466842
    vertex 103.78423191115738 19.013121570516535 9.999999999999993
  endloop
endfacet
facet normal -0.06918418399436431 -0.2581988897471612 -0.9636113749942803
  outer loop
    vertex 103.78423191115738 4.013121570516507 14.019237886466842
    vertex 96.28423191115735 6.022740513749936 14.019237886466842
    vertex 103.78423191115738 19.013121570516535 9.999999999999993
  endloop
endfacet
facet normal -0.06918418399436435 -0.25819888974716126 0.9636113749942802
  outer loop
    vertex 103.78423191115738 19.013121570516528 69.99999999999999
    vertex 96.28423191115736 6.022740513749953 65.98076211353315
    vertex 103.78423191115738 4.013121570516527 65.98076211353315
  endloop
endfacet
facet normal -0.1861567878973854 -0.6947465906068656 0.6947465906068658
  outer loop
    vertex 103.78423191115735 -6.967640543016612 55.0
    vertex 96.28423191115736 6.022740513749953 65.98076211353315
    vertex 90.79385085439078 -3.486878429483458 55.0
  endloop
endfacet
facet normal -0.1861567878973854 -0.6947465906068656 0.6947465906068658
  outer loop
    vertex 96.28423191115736 6.022740513749953 65.98076211353315
    vertex 103.78423191115735 -6.967640543016612 55.0
    vertex 103.78423191115738 4.013121570516527 65.98076211353315
  endloop
endfacet
facet normal 0.5085898027094808 -0.5085898027094808 -0.694746590606865
  outer loop
    vertex 116.77461296792397 11.513121570516514 14.019237886466842
    vertex 116.77461296792394 -3.486878429483486 25.00000000000001
    vertex 111.28423191115739 6.022740513749926 14.019237886466842
  endloop
endfacet
facet normal 0.5085898027094808 -0.5085898027094808 -0.694746590606865
  outer loop
    vertex 116.77461296792394 -3.486878429483486 25.00000000000001
    vertex 116.77461296792397 11.513121570516514 14.019237886466842
    vertex 126.28423191115738 6.022740513749938 25.00000000000001
  endloop
endfacet
facet normal 0.25056280708573125 -0.9351131265310295 0.25056280708573214
  outer loop
    vertex 116.77461296792393 -3.486878429483462 55.0
    vertex 103.78423191115738 -10.986878429483456 39.99999999999999
    vertex 118.78423191115735 -6.967640543016629 39.99999999999999
  endloop
endfacet
facet normal 0.25056280708573125 -0.9351131265310295 0.25056280708573214
  outer loop
    vertex 103.78423191115738 -10.986878429483456 39.99999999999999
    vertex 116.77461296792393 -3.486878429483462 55.0
    vertex 103.78423191115735 -6.967640543016612 55.0
  endloop
endfacet
facet normal -0.5085898027094807 -0.5085898027094807 -0.6947465906068652
  outer loop
    vertex 90.79385085439077 11.513121570516518 14.019237886466842
    vertex 90.79385085439077 -3.486878429483481 25.00000000000001
    vertex 81.28423191115735 6.022740513749942 25.00000000000001
  endloop
endfacet
facet normal -0.5085898027094807 -0.5085898027094807 -0.6947465906068652
  outer loop
    vertex 90.79385085439077 -3.486878429483481 25.00000000000001
    vertex 90.79385085439077 11.513121570516518 14.019237886466842
    vertex 96.28423191115735 6.022740513749936 14.019237886466842
  endloop
endfacet
facet normal 0.25819888974716104 -0.06918418399436439 0.9636113749942803
  outer loop
    vertex 118.78423191115738 19.01312157051653 65.98076211353315
    vertex 103.78423191115738 19.013121570516528 69.99999999999999
    vertex 116.77461296792394 11.513121570516528 65.98076211353315
  endloop
endfacet
facet normal 0.18615678789738518 -0.6947465906068663 0.6947465906068654
  outer loop
    vertex 111.28423191115736 6.02274051374994 65.98076211353315
    vertex 103.78423191115735 -6.967640543016612 55.0
    vertex 116.77461296792393 -3.486878429483462 55.0
  endloop
endfacet
facet normal 0.18615678789738518 -0.6947465906068663 0.6947465906068654
  outer loop
    vertex 103.78423191115735 -6.967640543016612 55.0
    vertex 111.28423191115736 6.02274051374994 65.98076211353315
    vertex 103.78423191115738 4.013121570516527 65.98076211353315
  endloop
endfacet
facet normal 0.6845503194452977 -0.6845503194452983 -0.25056280708573053
  outer loop
    vertex 129.7649940246905 4.0131215705165255 39.99999999999999
    vertex 116.77461296792394 -3.486878429483486 25.00000000000001
    vertex 126.28423191115738 6.022740513749938 25.00000000000001
  endloop
endfacet
facet normal 0.6845503194452977 -0.6845503194452983 -0.25056280708573053
  outer loop
    vertex 116.77461296792394 -3.486878429483486 25.00000000000001
    vertex 129.7649940246905 4.0131215705165255 39.99999999999999
    vertex 118.78423191115735 -6.967640543016629 39.99999999999999
  endloop
endfacet
facet normal 0.1890147057527971 -0.18901470575279666 0.9636113749942803
  outer loop
    vertex 116.77461296792394 11.513121570516528 65.98076211353315
    vertex 103.78423191115738 19.013121570516528 69.99999999999999
    vertex 111.28423191115736 6.02274051374994 65.98076211353315
  endloop
endfacet
facet normal 0.06918418399436427 -0.2581988897471611 -0.9636113749942803
  outer loop
    vertex 111.28423191115739 6.022740513749926 14.019237886466842
    vertex 103.78423191115738 4.013121570516507 14.019237886466842
    vertex 103.78423191115738 19.013121570516535 9.999999999999993
  endloop
endfacet
facet normal 0.18615678789738546 -0.6947465906068667 -0.6947465906068648
  outer loop
    vertex 116.77461296792394 -3.486878429483486 25.00000000000001
    vertex 103.78423191115738 4.013121570516507 14.019237886466842
    vertex 111.28423191115739 6.022740513749926 14.019237886466842
  endloop
endfacet
facet normal 0.18615678789738546 -0.6947465906068667 -0.6947465906068648
  outer loop
    vertex 103.78423191115738 4.013121570516507 14.019237886466842
    vertex 116.77461296792394 -3.486878429483486 25.00000000000001
    vertex 103.78423191115735 -6.9676405430166435 25.00000000000001
  endloop
endfacet
facet normal 0.2505628070857314 -0.9351131265310297 -0.2505628070857307
  outer loop
    vertex 118.78423191115735 -6.967640543016629 39.99999999999999
    vertex 103.78423191115735 -6.9676405430166435 25.00000000000001
    vertex 116.77461296792394 -3.486878429483486 25.00000000000001
  endloop
endfacet
facet normal 0.2505628070857314 -0.9351131265310297 -0.2505628070857307
  outer loop
    vertex 103.78423191115735 -6.9676405430166435 25.00000000000001
    vertex 118.78423191115735 -6.967640543016629 39.99999999999999
    vertex 103.78423191115738 -10.986878429483456 39.99999999999999
  endloop
endfacet
facet normal -0.6947465906068667 0.18615678789738607 -0.6947465906068647
  outer loop
    vertex 77.80346979762419 19.013121570516535 25.00000000000001
    vertex 90.79385085439077 26.51312157051656 14.019237886466842
    vertex 88.78423191115733 19.01312157051653 14.019237886466842
  endloop
endfacet
facet normal -0.6947465906068667 0.18615678789738607 -0.6947465906068647
  outer loop
    vertex 90.79385085439077 26.51312157051656 14.019237886466842
    vertex 77.80346979762419 19.013121570516535 25.00000000000001
    vertex 81.28423191115738 32.00350262728314 25.00000000000001
  endloop
endfacet
facet normal -0.2581988897471613 -0.06918418399436413 0.9636113749942802
  outer loop
    vertex 103.78423191115738 19.013121570516528 69.99999999999999
    vertex 88.78423191115738 19.013121570516528 65.98076211353315
    vertex 90.7938508543908 11.513121570516528 65.98076211353315
  endloop
endfacet
facet normal -0.5085898027094804 -0.50858980270948 0.6947465906068659
  outer loop
    vertex 90.79385085439078 -3.486878429483458 55.0
    vertex 90.7938508543908 11.513121570516528 65.98076211353315
    vertex 81.28423191115738 6.02274051374996 55.0
  endloop
endfacet
facet normal -0.5085898027094804 -0.50858980270948 0.6947465906068659
  outer loop
    vertex 90.7938508543908 11.513121570516528 65.98076211353315
    vertex 90.79385085439078 -3.486878429483458 55.0
    vertex 96.28423191115736 6.022740513749953 65.98076211353315
  endloop
endfacet
facet normal -0.2581988897471613 0.06918418399436391 0.9636113749942802
  outer loop
    vertex 103.78423191115738 19.013121570516528 69.99999999999999
    vertex 90.7938508543908 26.513121570516557 65.98076211353315
    vertex 88.78423191115738 19.013121570516528 65.98076211353315
  endloop
endfacet
facet normal -0.6845503194452981 0.6845503194452981 -0.25056280708573014
  outer loop
    vertex 77.80346979762423 34.01312157051654 39.99999999999999
    vertex 90.79385085439078 41.51312157051655 25.00000000000001
    vertex 81.28423191115738 32.00350262728314 25.00000000000001
  endloop
endfacet
facet normal -0.6845503194452981 0.6845503194452981 -0.25056280708573014
  outer loop
    vertex 90.79385085439078 41.51312157051655 25.00000000000001
    vertex 77.80346979762423 34.01312157051654 39.99999999999999
    vertex 88.78423191115738 44.993883684049685 39.99999999999999
  endloop
endfacet
facet normal -0.6845503194452978 0.6845503194452978 0.2505628070857317
  outer loop
    vertex 90.79385085439081 41.513121570516525 55.0
    vertex 77.80346979762423 34.01312157051654 39.99999999999999
    vertex 81.28423191115739 32.00350262728312 55.0
  endloop
endfacet
facet normal -0.6845503194452978 0.6845503194452978 0.2505628070857317
  outer loop
    vertex 77.80346979762423 34.01312157051654 39.99999999999999
    vertex 90.79385085439081 41.513121570516525 55.0
    vertex 88.78423191115738 44.993883684049685 39.99999999999999
  endloop
endfacet
facet normal -0.5085898027094812 0.5085898027094808 -0.6947465906068646
  outer loop
    vertex 90.79385085439078 41.51312157051655 25.00000000000001
    vertex 90.79385085439077 26.51312157051656 14.019237886466842
    vertex 81.28423191115738 32.00350262728314 25.00000000000001
  endloop
endfacet
facet normal -0.5085898027094812 0.5085898027094808 -0.6947465906068646
  outer loop
    vertex 90.79385085439077 26.51312157051656 14.019237886466842
    vertex 90.79385085439078 41.51312157051655 25.00000000000001
    vertex 96.28423191115735 32.00350262728315 14.019237886466842
  endloop
endfacet
facet normal -0.258198889747161 -0.06918418399436423 -0.9636113749942803
  outer loop
    vertex 103.78423191115738 19.013121570516535 9.999999999999993
    vertex 90.79385085439077 11.513121570516518 14.019237886466842
    vertex 88.78423191115733 19.01312157051653 14.019237886466842
  endloop
endfacet
facet normal -0.5085898027094807 0.5085898027094807 0.694746590606865
  outer loop
    vertex 90.7938508543908 26.513121570516557 65.98076211353315
    vertex 90.79385085439081 41.513121570516525 55.0
    vertex 81.28423191115739 32.00350262728312 55.0
  endloop
endfacet
facet normal -0.5085898027094807 0.5085898027094807 0.694746590606865
  outer loop
    vertex 90.79385085439081 41.513121570516525 55.0
    vertex 90.7938508543908 26.513121570516557 65.98076211353315
    vertex 96.28423191115736 32.00350262728313 65.98076211353315
  endloop
endfacet
facet normal -0.93511312653103 -0.25056280708573136 -0.25056280708573003
  outer loop
    vertex 73.78423191115739 19.013121570516535 39.99999999999999
    vertex 81.28423191115735 6.022740513749942 25.00000000000001
    vertex 77.80346979762422 4.0131215705165495 39.99999999999999
  endloop
endfacet
facet normal -0.93511312653103 -0.25056280708573136 -0.25056280708573003
  outer loop
    vertex 81.28423191115735 6.022740513749942 25.00000000000001
    vertex 73.78423191115739 19.013121570516535 39.99999999999999
    vertex 77.80346979762419 19.013121570516535 25.00000000000001
  endloop
endfacet
facet normal -0.25819888974716093 0.06918418399436417 -0.9636113749942803
  outer loop
    vertex 103.78423191115738 19.013121570516535 9.999999999999993
    vertex 88.78423191115733 19.01312157051653 14.019237886466842
    vertex 90.79385085439077 26.51312157051656 14.019237886466842
  endloop
endfacet
facet normal -0.9351131265310293 0.2505628070857318 0.25056280708573186
  outer loop
    vertex 81.28423191115739 32.00350262728312 55.0
    vertex 73.78423191115739 19.013121570516535 39.99999999999999
    vertex 77.80346979762423 19.013121570516535 55.0
  endloop
endfacet
facet normal -0.9351131265310293 0.2505628070857318 0.25056280708573186
  outer loop
    vertex 73.78423191115739 19.013121570516535 39.99999999999999
    vertex 81.28423191115739 32.00350262728312 55.0
    vertex 77.80346979762423 34.01312157051654 39.99999999999999
  endloop
endfacet
facet normal -0.18901470575279677 0.1890147057527965 -0.9636113749942803
  outer loop
    vertex 103.78423191115738 19.013121570516535 9.999999999999993
    vertex 90.79385085439077 26.51312157051656 14.019237886466842
    vertex 96.28423191115735 32.00350262728315 14.019237886466842
  endloop
endfacet
facet normal -0.1890147057527964 0.18901470575279705 0.9636113749942803
  outer loop
    vertex 103.78423191115738 19.013121570516528 69.99999999999999
    vertex 96.28423191115736 32.00350262728313 65.98076211353315
    vertex 90.7938508543908 26.513121570516557 65.98076211353315
  endloop
endfacet
facet normal -0.9351131265310296 0.2505628070857324 -0.25056280708573003
  outer loop
    vertex 77.80346979762423 34.01312157051654 39.99999999999999
    vertex 77.80346979762419 19.013121570516535 25.00000000000001
    vertex 73.78423191115739 19.013121570516535 39.99999999999999
  endloop
endfacet
facet normal -0.9351131265310296 0.2505628070857324 -0.25056280708573003
  outer loop
    vertex 77.80346979762419 19.013121570516535 25.00000000000001
    vertex 77.80346979762423 34.01312157051654 39.99999999999999
    vertex 81.28423191115738 32.00350262728314 25.00000000000001
  endloop
endfacet
facet normal -0.6845503194452982 -0.684550319445298 -0.25056280708572976
  outer loop
    vertex 77.80346979762422 4.0131215705165495 39.99999999999999
    vertex 90.79385085439077 -3.486878429483481 25.00000000000001
    vertex 88.78423191115738 -6.967640543016612 39.99999999999999
  endloop
endfacet
facet normal -0.6845503194452982 -0.684550319445298 -0.25056280708572976
  outer loop
    vertex 90.79385085439077 -3.486878429483481 25.00000000000001
    vertex 77.80346979762422 4.0131215705165495 39.99999999999999
    vertex 81.28423191115735 6.022740513749942 25.00000000000001
  endloop
endfacet
facet normal -0.06918418399436424 0.2581988897471609 -0.9636113749942803
  outer loop
    vertex 103.78423191115738 19.013121570516535 9.999999999999993
    vertex 96.28423191115735 32.00350262728315 14.019237886466842
    vertex 103.78423191115738 34.01312157051658 14.019237886466842
  endloop
endfacet
facet normal -0.684550319445298 -0.6845503194452978 0.25056280708573114
  outer loop
    vertex 90.79385085439078 -3.486878429483458 55.0
    vertex 77.80346979762422 4.0131215705165495 39.99999999999999
    vertex 88.78423191115738 -6.967640543016612 39.99999999999999
  endloop
endfacet
facet normal -0.684550319445298 -0.6845503194452978 0.25056280708573114
  outer loop
    vertex 77.80346979762422 4.0131215705165495 39.99999999999999
    vertex 90.79385085439078 -3.486878429483458 55.0
    vertex 81.28423191115738 6.02274051374996 55.0
  endloop
endfacet
facet normal -0.6947465906068662 0.18615678789738546 0.6947465906068653
  outer loop
    vertex 90.7938508543908 26.513121570516557 65.98076211353315
    vertex 77.80346979762423 19.013121570516535 55.0
    vertex 88.78423191115738 19.013121570516528 65.98076211353315
  endloop
endfacet
facet normal -0.6947465906068662 0.18615678789738546 0.6947465906068653
  outer loop
    vertex 77.80346979762423 19.013121570516535 55.0
    vertex 90.7938508543908 26.513121570516557 65.98076211353315
    vertex 81.28423191115739 32.00350262728312 55.0
  endloop
endfacet
facet normal -0.6947465906068662 -0.1861567878973847 0.6947465906068655
  outer loop
    vertex 90.7938508543908 11.513121570516528 65.98076211353315
    vertex 77.80346979762423 19.013121570516535 55.0
    vertex 81.28423191115738 6.02274051374996 55.0
  endloop
endfacet
facet normal -0.6947465906068662 -0.1861567878973847 0.6947465906068655
  outer loop
    vertex 77.80346979762423 19.013121570516535 55.0
    vertex 90.7938508543908 11.513121570516528 65.98076211353315
    vertex 88.78423191115738 19.013121570516528 65.98076211353315
  endloop
endfacet
facet normal -0.18901470575279686 -0.1890147057527969 0.9636113749942803
  outer loop
    vertex 103.78423191115738 19.013121570516528 69.99999999999999
    vertex 90.7938508543908 11.513121570516528 65.98076211353315
    vertex 96.28423191115736 6.022740513749953 65.98076211353315
  endloop
endfacet
facet normal -0.9351131265310296 -0.25056280708573064 0.2505628070857318
  outer loop
    vertex 81.28423191115738 6.02274051374996 55.0
    vertex 73.78423191115739 19.013121570516535 39.99999999999999
    vertex 77.80346979762422 4.0131215705165495 39.99999999999999
  endloop
endfacet
facet normal -0.9351131265310296 -0.25056280708573064 0.2505628070857318
  outer loop
    vertex 73.78423191115739 19.013121570516535 39.99999999999999
    vertex 81.28423191115738 6.02274051374996 55.0
    vertex 77.80346979762423 19.013121570516535 55.0
  endloop
endfacet
facet normal -0.6947465906068665 -0.18615678789738563 -0.694746590606865
  outer loop
    vertex 77.80346979762419 19.013121570516535 25.00000000000001
    vertex 90.79385085439077 11.513121570516518 14.019237886466842
    vertex 81.28423191115735 6.022740513749942 25.00000000000001
  endloop
endfacet
facet normal -0.6947465906068665 -0.18615678789738563 -0.694746590606865
  outer loop
    vertex 90.79385085439077 11.513121570516518 14.019237886466842
    vertex 77.80346979762419 19.013121570516535 25.00000000000001
    vertex 88.78423191115733 19.01312157051653 14.019237886466842
  endloop
endfacet
facet normal -0.25056280708573153 0.9351131265310297 -0.2505628070857303
  outer loop
    vertex 88.78423191115738 44.993883684049685 39.99999999999999
    vertex 103.78423191115738 44.99388368404971 25.00000000000001
    vertex 90.79385085439078 41.51312157051655 25.00000000000001
  endloop
endfacet
facet normal -0.25056280708573153 0.9351131265310297 -0.2505628070857303
  outer loop
    vertex 103.78423191115738 44.99388368404971 25.00000000000001
    vertex 88.78423191115738 44.993883684049685 39.99999999999999
    vertex 103.78423191115738 49.013121570516525 39.99999999999999
  endloop
endfacet
facet normal -0.18615678789738582 0.6947465906068665 0.6947465906068649
  outer loop
    vertex 96.28423191115736 32.00350262728313 65.98076211353315
    vertex 103.78423191115738 44.993883684049685 55.0
    vertex 90.79385085439081 41.513121570516525 55.0
  endloop
endfacet
facet normal -0.18615678789738582 0.6947465906068665 0.6947465906068649
  outer loop
    vertex 103.78423191115738 44.993883684049685 55.0
    vertex 96.28423191115736 32.00350262728313 65.98076211353315
    vertex 103.78423191115738 34.01312157051656 65.98076211353315
  endloop
endfacet
facet normal 0.2505628070857321 0.9351131265310295 -0.2505628070857305
  outer loop
    vertex 103.78423191115738 49.013121570516525 39.99999999999999
    vertex 116.77461296792394 41.513121570516546 25.00000000000001
    vertex 103.78423191115738 44.99388368404971 25.00000000000001
  endloop
endfacet
facet normal 0.2505628070857321 0.9351131265310295 -0.2505628070857305
  outer loop
    vertex 116.77461296792394 41.513121570516546 25.00000000000001
    vertex 103.78423191115738 49.013121570516525 39.99999999999999
    vertex 118.78423191115738 44.993883684049685 39.99999999999999
  endloop
endfacet
facet normal 0.06918418399436425 0.258198889747161 -0.9636113749942803
  outer loop
    vertex 111.28423191115739 32.003502627283154 14.019237886466842
    vertex 103.78423191115738 19.013121570516535 9.999999999999993
    vertex 103.78423191115738 34.01312157051658 14.019237886466842
  endloop
endfacet
facet normal 0.1861567878973864 0.694746590606867 -0.6947465906068644
  outer loop
    vertex 103.78423191115738 44.99388368404971 25.00000000000001
    vertex 111.28423191115739 32.003502627283154 14.019237886466842
    vertex 103.78423191115738 34.01312157051658 14.019237886466842
  endloop
endfacet
facet normal 0.1861567878973864 0.694746590606867 -0.6947465906068644
  outer loop
    vertex 111.28423191115739 32.003502627283154 14.019237886466842
    vertex 103.78423191115738 44.99388368404971 25.00000000000001
    vertex 116.77461296792394 41.513121570516546 25.00000000000001
  endloop
endfacet
facet normal 0.250562807085732 0.9351131265310293 0.2505628070857315
  outer loop
    vertex 103.78423191115738 44.993883684049685 55.0
    vertex 118.78423191115738 44.993883684049685 39.99999999999999
    vertex 103.78423191115738 49.013121570516525 39.99999999999999
  endloop
endfacet
facet normal 0.250562807085732 0.9351131265310293 0.2505628070857315
  outer loop
    vertex 118.78423191115738 44.993883684049685 39.99999999999999
    vertex 103.78423191115738 44.993883684049685 55.0
    vertex 116.77461296792394 41.513121570516525 55.0
  endloop
endfacet
facet normal 0.18615678789738624 0.6947465906068664 0.6947465906068649
  outer loop
    vertex 103.78423191115738 34.01312157051656 65.98076211353315
    vertex 116.77461296792394 41.513121570516525 55.0
    vertex 103.78423191115738 44.993883684049685 55.0
  endloop
endfacet
facet normal 0.18615678789738624 0.6947465906068664 0.6947465906068649
  outer loop
    vertex 116.77461296792394 41.513121570516525 55.0
    vertex 103.78423191115738 34.01312157051656 65.98076211353315
    vertex 111.28423191115739 32.00350262728313 65.98076211353315
  endloop
endfacet
facet normal 0.06918418399436434 0.25819888974716076 0.9636113749942804
  outer loop
    vertex 111.28423191115739 32.00350262728313 65.98076211353315
    vertex 103.78423191115738 34.01312157051656 65.98076211353315
    vertex 103.78423191115738 19.013121570516528 69.99999999999999
  endloop
endfacet
facet normal 0.5085898027094813 0.5085898027094817 -0.694746590606864
  outer loop
    vertex 116.77461296792394 41.513121570516546 25.00000000000001
    vertex 116.774612967924 26.513121570516557 14.019237886466842
    vertex 111.28423191115739 32.003502627283154 14.019237886466842
  endloop
endfacet
facet normal 0.5085898027094813 0.5085898027094817 -0.694746590606864
  outer loop
    vertex 116.774612967924 26.513121570516557 14.019237886466842
    vertex 116.77461296792394 41.513121570516546 25.00000000000001
    vertex 126.28423191115736 32.00350262728312 25.00000000000001
  endloop
endfacet
facet normal 0.18901470575279672 0.18901470575279677 -0.9636113749942803
  outer loop
    vertex 116.774612967924 26.513121570516557 14.019237886466842
    vertex 103.78423191115738 19.013121570516535 9.999999999999993
    vertex 111.28423191115739 32.003502627283154 14.019237886466842
  endloop
endfacet
facet normal -0.18615678789738568 0.6947465906068669 -0.6947465906068646
  outer loop
    vertex 90.79385085439078 41.51312157051655 25.00000000000001
    vertex 103.78423191115738 34.01312157051658 14.019237886466842
    vertex 96.28423191115735 32.00350262728315 14.019237886466842
  endloop
endfacet
facet normal -0.18615678789738568 0.6947465906068669 -0.6947465906068646
  outer loop
    vertex 103.78423191115738 34.01312157051658 14.019237886466842
    vertex 90.79385085439078 41.51312157051655 25.00000000000001
    vertex 103.78423191115738 44.99388368404971 25.00000000000001
  endloop
endfacet
facet normal -0.25056280708573164 0.9351131265310293 0.2505628070857318
  outer loop
    vertex 90.79385085439081 41.513121570516525 55.0
    vertex 103.78423191115738 49.013121570516525 39.99999999999999
    vertex 88.78423191115738 44.993883684049685 39.99999999999999
  endloop
endfacet
facet normal -0.25056280708573164 0.9351131265310293 0.2505628070857318
  outer loop
    vertex 103.78423191115738 49.013121570516525 39.99999999999999
    vertex 90.79385085439081 41.513121570516525 55.0
    vertex 103.78423191115738 44.993883684049685 55.0
  endloop
endfacet
facet normal -0.06918418399436418 0.2581988897471609 0.9636113749942804
  outer loop
    vertex 103.78423191115738 34.01312157051656 65.98076211353315
    vertex 96.28423191115736 32.00350262728313 65.98076211353315
    vertex 103.78423191115738 19.013121570516528 69.99999999999999
  endloop
endfacet
endsolid STLtool_examples
