solid STLtool_examples
facet normal 0.0 1.0 0.0
  outer loop
    vertex 28.949844418228714 1.419076796029772 7.0
    vertex 30.949844418228718 1.419076796029772 0.0
    vertex 28.949844418228714 1.419076796029772 0.0
  endloop
endfacet
facet normal 0.0 1.0 0.0
  outer loop
    vertex 30.949844418228718 1.419076796029772 0.0
    vertex 28.949844418228714 1.419076796029772 7.0
    vertex 30.949844418228718 1.419076796029772 7.0
  endloop
endfacet
facet normal 0.0 0.0 -1.0
  outer loop
    vertex 30.949844418228718 1.419076796029772 0.0
    vertex 28.949844418228714 -2.5809232039702277 0.0
    vertex 28.949844418228714 1.419076796029772 0.0
  endloop
endfacet
facet normal 0.0 0.0 -1.0
  outer loop
    vertex 28.949844418228714 -2.5809232039702277 0.0
    vertex 30.949844418228718 1.419076796029772 0.0
    vertex 30.949844418228718 -2.5809232039702277 0.0
  endloop
endfacet
facet normal -1.0 0.0 0.0
  outer loop
    vertex 28.949844418228714 1.419076796029772 7.0
    vertex 28.949844418228714 -2.5809232039702277 0.0
    vertex 28.949844418228714 -2.5809232039702277 7.0
  endloop
endfacet
facet normal -1.0 0.0 0.0
  outer loop
    vertex 28.949844418228714 -2.5809232039702277 0.0
    vertex 28.949844418228714 1.419076796029772 7.0
    vertex 28.949844418228714 1.419076796029772 0.0
  endloop
endfacet
facet normal 0.0 0.0 1.0
  outer loop
    vertex 30.949844418228718 -2.5809232039702277 7.0
    vertex 28.949844418228714 1.419076796029772 7.0
    vertex 28.949844418228714 -2.5809232039702277 7.0
  endloop
endfacet
facet normal 0.0 0.0 1.0
  outer loop
    vertex 28.949844418228714 1.419076796029772 7.0
    vertex 30.949844418228718 -2.5809232039702277 7.0
    vertex 30.949844418228718 1.419076796029772 7.0
  endloop
endfacet
facet normal 1.0 0.0 0.0
  outer loop
    vertex 30.949844418228718 1.419076796029772 0.0
    vertex 30.949844418228718 -2.5809232039702277 7.0
    vertex 30.949844418228718 -2.5809232039702277 0.0
  endloop
endfacet
facet normal 1.0 0.0 0.0
  outer loop
    vertex 30.949844418228718 -2.5809232039702277 7.0
    vertex 30.949844418228718 1.419076796029772 0.0
    vertex 30.949844418228718 1.419076796029772 7.0
  endloop
endfacet
facet normal -0.0 -1.0 -0.0
  outer loop
    vertex 30.949844418228718 -2.5809232039702277 7.0
    vertex 28.949844418228714 -2.5809232039702277 0.0
    vertex 30.949844418228718 -2.5809232039702277 0.0
  endloop
endfacet
facet normal -0.0 -1.0 -0.0
  outer loop
    vertex 28.949844418228714 -2.5809232039702277 0.0
    vertex 30.949844418228718 -2.5809232039702277 7.0
    vertex 28.949844418228714 -2.5809232039702277 7.0
  endloop
endfacet
endsolid STLtool_examples
