solid test
facet normal 0.0 0.0 -1.0
  outer loop
    vertex 21.949844418228714 0.41907679602977216 0.0
    vertex 18.949844418228714 -2.5809232039702277 0.0
    vertex 18.949844418228714 0.41907679602977216 0.0
  endloop
endfacet
facet normal 0.0 0.0 -1.0
  outer loop
    vertex 18.949844418228714 -2.5809232039702277 0.0
    vertex 21.949844418228714 0.41907679602977216 0.0
    vertex 21.949844418228714 -2.5809232039702277 0.0
  endloop
endfacet
facet normal -0.0 -0.0 1.0
  outer loop
    vertex 21.949844418228714 -2.5809232039702277 3.0
    vertex 18.949844418228714 0.41907679602977216 3.0
    vertex 18.949844418228714 -2.5809232039702277 3.0
  endloop
endfacet
facet normal -0.0 -0.0 1.0
  outer loop
    vertex 18.949844418228714 0.41907679602977216 3.0
    vertex 21.949844418228714 -2.5809232039702277 3.0
    vertex 21.949844418228714 0.41907679602977216 3.0
  endloop
endfacet
facet normal -0.0 -1.0 -0.0
  outer loop
    vertex 21.949844418228714 -2.5809232039702277 3.0
    vertex 18.949844418228714 -2.5809232039702277 0.0
    vertex 21.949844418228714 -2.5809232039702277 0.0
  endloop
endfacet
facet normal -0.0 -1.0 -0.0
  outer loop
    vertex 18.949844418228714 -2.5809232039702277 0.0
    vertex 21.949844418228714 -2.5809232039702277 3.0
    vertex 18.949844418228714 -2.5809232039702277 3.0
  endloop
endfacet
facet normal -0.0 1.0 0.0
  outer loop
    vertex 18.949844418228714 0.41907679602977216 3.0
    vertex 21.949844418228714 0.41907679602977216 0.0
    vertex 18.949844418228714 0.41907679602977216 0.0
  endloop
endfacet
facet normal -0.0 1.0 0.0
  outer loop
    vertex 21.949844418228714 0.41907679602977216 0.0
    vertex 18.949844418228714 0.41907679602977216 3.0
    vertex 21.949844418228714 0.41907679602977216 3.0
  endloop
endfacet
facet normal 1.0 0.0 0.0
  outer loop
    vertex 21.949844418228714 0.41907679602977216 0.0
    vertex 21.949844418228714 -2.5809232039702277 3.0
    vertex 21.949844418228714 -2.5809232039702277 0.0
  endloop
endfacet
facet normal 1.0 0.0 0.0
  outer loop
    vertex 21.949844418228714 -2.5809232039702277 3.0
    vertex 21.949844418228714 0.41907679602977216 0.0
    vertex 21.949844418228714 0.41907679602977216 3.0
  endloop
endfacet
facet normal -1.0 0.0 0.0
  outer loop
    vertex 18.949844418228714 0.41907679602977216 3.0
    vertex 18.949844418228714 -2.5809232039702277 0.0
    vertex 18.949844418228714 -2.5809232039702277 3.0
  endloop
endfacet
facet normal -1.0 0.0 0.0
  outer loop
    vertex 18.949844418228714 -2.5809232039702277 0.0
    vertex 18.949844418228714 0.41907679602977216 3.0
    vertex 18.949844418228714 0.41907679602977216 0.0
  endloop
endfacet
endsolid test
