solid test
facet normal 0.5086538733926723 0.5313610944250713 0.6774412331811681
  outer loop
    vertex 64.38249607787024 -23.993339158275052 0.0
    vertex 57.15876332420651 -17.078305889834077 0.0
    vertex 62.754785527322355 -27.894875771491893 4.282387754010328
  endloop
endfacet
facet normal 0.0 0.0 -1.0
  outer loop
    vertex 64.38249607787024 -23.993339158275052 0.0
    vertex 62.3550904881958 -27.894875771491893 0.0
    vertex 57.15876332420651 -17.078305889834077 0.0
  endloop
endfacet
facet normal -0.8982077324945891 -0.43150289697490596 0.08383387852886408
  outer loop
    vertex 57.15876332420651 -17.078305889834077 0.0
    vertex 62.3550904881958 -27.894875771491893 0.0
    vertex 62.754785527322355 -27.894875771491893 4.282387754010328
  endloop
endfacet
facet normal 0.8843188208458473 -0.4595299488831282 -0.08253756222035856
  outer loop
    vertex 64.38249607787024 -23.993339158275052 0.0
    vertex 62.754785527322355 -27.894875771491893 4.282387754010328
    vertex 62.3550904881958 -27.894875771491893 0.0
  endloop
endfacet
endsolid test
