solid test
facet normal 0.554700196225229 0.8320502943378438 -0.0
  outer loop
    vertex 35.76423178061049 -3.003715810726938 0.9999999999999999
    vertex 38.76423178061049 -5.003715810726938 0.0
    vertex 35.76423178061049 -3.003715810726938 0.0
  endloop
endfacet
facet normal 0.554700196225229 0.8320502943378438 -0.0
  outer loop
    vertex 38.76423178061049 -5.003715810726938 0.0
    vertex 35.76423178061049 -3.003715810726938 0.9999999999999999
    vertex 38.76423178061049 -5.003715810726938 0.9999999999999999
  endloop
endfacet
facet normal 1.0 -0.0 -0.0
  outer loop
    vertex 38.76423178061049 -5.003715810726938 0.0
    vertex 38.76423178061049 -9.003715810726938 0.9999999999999999
    vertex 38.76423178061049 -9.003715810726938 0.0
  endloop
endfacet
facet normal 1.0 -0.0 -0.0
  outer loop
    vertex 38.76423178061049 -9.003715810726938 0.9999999999999999
    vertex 38.76423178061049 -5.003715810726938 0.0
    vertex 38.76423178061049 -5.003715810726938 0.9999999999999999
  endloop
endfacet
facet normal -0.0 -0.0 1.0
  outer loop
    vertex 38.76423178061049 -9.003715810726938 0.9999999999999999
    vertex 35.76423178061049 -3.003715810726938 0.9999999999999999
    vertex 35.76423178061049 -5.003715810726938 0.9999999999999999
  endloop
endfacet
facet normal -0.0 -0.0 1.0
  outer loop
    vertex 35.76423178061049 -3.003715810726938 0.9999999999999999
    vertex 38.76423178061049 -9.003715810726938 0.9999999999999999
    vertex 38.76423178061049 -5.003715810726938 0.9999999999999999
  endloop
endfacet
facet normal -0.8 -0.6 0.0
  outer loop
    vertex 35.76423178061049 -5.003715810726938 0.9999999999999999
    vertex 38.76423178061049 -9.003715810726938 0.0
    vertex 38.76423178061049 -9.003715810726938 0.9999999999999999
  endloop
endfacet
facet normal -0.8 -0.6 0.0
  outer loop
    vertex 38.76423178061049 -9.003715810726938 0.0
    vertex 35.76423178061049 -5.003715810726938 0.9999999999999999
    vertex 35.76423178061049 -5.003715810726938 0.0
  endloop
endfacet
facet normal -1.0 0.0 0.0
  outer loop
    vertex 35.76423178061049 -3.003715810726938 0.9999999999999999
    vertex 35.76423178061049 -5.003715810726938 0.0
    vertex 35.76423178061049 -5.003715810726938 0.9999999999999999
  endloop
endfacet
facet normal -1.0 0.0 0.0
  outer loop
    vertex 35.76423178061049 -5.003715810726938 0.0
    vertex 35.76423178061049 -3.003715810726938 0.9999999999999999
    vertex 35.76423178061049 -3.003715810726938 0.0
  endloop
endfacet
facet normal 0.0 0.0 -1.0
  outer loop
    vertex 38.76423178061049 -5.003715810726938 0.0
    vertex 35.76423178061049 -5.003715810726938 0.0
    vertex 35.76423178061049 -3.003715810726938 0.0
  endloop
endfacet
facet normal 0.0 0.0 -1.0
  outer loop
    vertex 35.76423178061049 -5.003715810726938 0.0
    vertex 38.76423178061049 -5.003715810726938 0.0
    vertex 38.76423178061049 -9.003715810726938 0.0
  endloop
endfacet
endsolid test
