solid test
facet normal -1.0 1.4358941124765325e-16 3.2388589003229963e-18
  outer loop
    vertex 0.9999999999999996 5.000000000000002 19.999999999999996
    vertex 0.9999999999999996 0.9999999999999999 4.999999999999998
    vertex 0.9999999999999996 0.9999999999999999 9.999999999999996
  endloop
endfacet
facet normal -1.0 1.4358941124765325e-16 3.2388589003229963e-18
  outer loop
    vertex 0.9999999999999996 0.9999999999999999 4.999999999999998
    vertex 0.9999999999999996 5.000000000000002 19.999999999999996
    vertex 1.0000000000000002 7.999999999999999 4.999999999999998
  endloop
endfacet
facet normal -1.0 1.4358941124765325e-16 3.2388589003229963e-18
  outer loop
    vertex 1.0000000000000002 7.999999999999999 4.999999999999998
    vertex 0.9999999999999996 5.000000000000002 19.999999999999996
    vertex 1.0000000000000009 7.999999999999999 19.999999999999996
  endloop
endfacet
facet normal -0.0 -0.0 1.0
  outer loop
    vertex 2.9999999999999987 5.000000000000002 19.999999999999996
    vertex 1.0000000000000009 7.999999999999999 19.999999999999996
    vertex 0.9999999999999996 5.000000000000002 19.999999999999996
  endloop
endfacet
facet normal -0.0 -0.0 1.0
  outer loop
    vertex 1.0000000000000009 7.999999999999999 19.999999999999996
    vertex 2.9999999999999987 5.000000000000002 19.999999999999996
    vertex 2.9999999999999987 7.999999999999999 19.999999999999996
  endloop
endfacet
facet normal -0.0 1.0 -0.0
  outer loop
    vertex 1.0000000000000002 7.999999999999999 4.999999999999998
    vertex 5.999999999999997 7.999999999999999 0.0
    vertex 3.000000000000001 7.999999999999999 0.0
  endloop
endfacet
facet normal -0.0 1.0 -0.0
  outer loop
    vertex 5.999999999999997 7.999999999999999 0.0
    vertex 1.0000000000000002 7.999999999999999 4.999999999999998
    vertex 10.999999999999995 7.999999999999999 4.999999999999999
  endloop
endfacet
facet normal -0.0 1.0 -0.0
  outer loop
    vertex 10.999999999999995 7.999999999999999 4.999999999999999
    vertex 1.0000000000000002 7.999999999999999 4.999999999999998
    vertex 5.999999999999997 7.999999999999999 9.999999999999996
  endloop
endfacet
facet normal -0.0 1.0 -0.0
  outer loop
    vertex 5.999999999999997 7.999999999999999 9.999999999999996
    vertex 1.0000000000000002 7.999999999999999 4.999999999999998
    vertex 1.0000000000000009 7.999999999999999 19.999999999999996
  endloop
endfacet
facet normal -0.0 1.0 -0.0
  outer loop
    vertex 5.999999999999997 7.999999999999999 9.999999999999996
    vertex 1.0000000000000009 7.999999999999999 19.999999999999996
    vertex 2.9999999999999987 7.999999999999999 19.999999999999996
  endloop
endfacet
facet normal -0.0 1.0 -0.0
  outer loop
    vertex 10.999999999999995 7.999999999999999 9.999999999999996
    vertex 10.999999999999995 7.999999999999999 4.999999999999999
    vertex 5.999999999999997 7.999999999999999 9.999999999999996
  endloop
endfacet
facet normal 1.0 -0.0 -0.0
  outer loop
    vertex 10.999999999999995 7.999999999999999 4.999999999999999
    vertex 10.999999999999995 0.9999999999999999 9.999999999999996
    vertex 10.999999999999995 0.9999999999999999 4.999999999999999
  endloop
endfacet
facet normal 1.0 -0.0 -0.0
  outer loop
    vertex 10.999999999999995 0.9999999999999999 9.999999999999996
    vertex 10.999999999999995 7.999999999999999 4.999999999999999
    vertex 10.999999999999995 7.999999999999999 9.999999999999996
  endloop
endfacet
facet normal 0.0 0.0 -1.0
  outer loop
    vertex 3.000000000000001 7.999999999999999 0.0
    vertex 5.999999999999997 0.9999999999999999 0.0
    vertex 2.9999999999999996 0.9999999999999999 0.0
  endloop
endfacet
facet normal 0.0 0.0 -1.0
  outer loop
    vertex 5.999999999999997 0.9999999999999999 0.0
    vertex 3.000000000000001 7.999999999999999 0.0
    vertex 5.999999999999997 7.999999999999999 0.0
  endloop
endfacet
facet normal -0.9284766908852594 1.2087805688307023e-16 -0.37139067635410394
  outer loop
    vertex 1.0000000000000002 7.999999999999999 4.999999999999998
    vertex 2.9999999999999996 0.9999999999999999 0.0
    vertex 0.9999999999999996 0.9999999999999999 4.999999999999998
  endloop
endfacet
facet normal -0.9284766908852594 1.2087805688307023e-16 -0.37139067635410394
  outer loop
    vertex 2.9999999999999996 0.9999999999999999 0.0
    vertex 1.0000000000000002 7.999999999999999 4.999999999999998
    vertex 3.000000000000001 7.999999999999999 0.0
  endloop
endfacet
facet normal -0.0 -0.0 1.0
  outer loop
    vertex 10.999999999999995 0.9999999999999999 9.999999999999996
    vertex 5.999999999999997 7.999999999999999 9.999999999999996
    vertex 5.999999999999997 0.9999999999999999 9.999999999999996
  endloop
endfacet
facet normal -0.0 -0.0 1.0
  outer loop
    vertex 5.999999999999997 7.999999999999999 9.999999999999996
    vertex 10.999999999999995 0.9999999999999999 9.999999999999996
    vertex 10.999999999999995 7.999999999999999 9.999999999999996
  endloop
endfacet
facet normal 0.0 -1.0 0.0
  outer loop
    vertex 10.999999999999995 0.9999999999999999 4.999999999999999
    vertex 2.9999999999999996 0.9999999999999999 0.0
    vertex 5.999999999999997 0.9999999999999999 0.0
  endloop
endfacet
facet normal 0.0 -1.0 0.0
  outer loop
    vertex 2.9999999999999996 0.9999999999999999 0.0
    vertex 10.999999999999995 0.9999999999999999 4.999999999999999
    vertex 0.9999999999999996 0.9999999999999999 4.999999999999998
  endloop
endfacet
facet normal 0.0 -1.0 0.0
  outer loop
    vertex 0.9999999999999996 0.9999999999999999 4.999999999999998
    vertex 10.999999999999995 0.9999999999999999 4.999999999999999
    vertex 0.9999999999999996 0.9999999999999999 9.999999999999996
  endloop
endfacet
facet normal 0.0 -1.0 0.0
  outer loop
    vertex 0.9999999999999996 0.9999999999999999 9.999999999999996
    vertex 10.999999999999995 0.9999999999999999 4.999999999999999
    vertex 10.999999999999995 0.9999999999999999 9.999999999999996
  endloop
endfacet
facet normal 0.0 -1.0 0.0
  outer loop
    vertex 0.9999999999999996 0.9999999999999999 9.999999999999996
    vertex 10.999999999999995 0.9999999999999999 9.999999999999996
    vertex 5.999999999999997 0.9999999999999999 9.999999999999996
  endloop
endfacet
facet normal 0.7071067811865477 -0.0 -0.7071067811865474
  outer loop
    vertex 5.999999999999997 7.999999999999999 0.0
    vertex 10.999999999999995 0.9999999999999999 4.999999999999999
    vertex 5.999999999999997 0.9999999999999999 0.0
  endloop
endfacet
facet normal 0.7071067811865477 -0.0 -0.7071067811865474
  outer loop
    vertex 10.999999999999995 0.9999999999999999 4.999999999999999
    vertex 5.999999999999997 7.999999999999999 0.0
    vertex 10.999999999999995 7.999999999999999 4.999999999999999
  endloop
endfacet
facet normal 0.9578262852211515 5.962026253659851e-17 0.2873478855663453
  outer loop
    vertex 5.999999999999997 7.999999999999999 9.999999999999996
    vertex 2.9999999999999987 5.000000000000002 19.999999999999996
    vertex 5.999999999999997 0.9999999999999999 9.999999999999996
  endloop
endfacet
facet normal 0.9578262852211515 5.962026253659851e-17 0.2873478855663453
  outer loop
    vertex 2.9999999999999987 5.000000000000002 19.999999999999996
    vertex 5.999999999999997 7.999999999999999 9.999999999999996
    vertex 2.9999999999999987 7.999999999999999 19.999999999999996
  endloop
endfacet
facet normal -5.779338584022081e-17 -0.9284766908852594 0.3713906763541039
  outer loop
    vertex 2.9999999999999987 5.000000000000002 19.999999999999996
    vertex 0.9999999999999996 0.9999999999999999 9.999999999999996
    vertex 5.999999999999997 0.9999999999999999 9.999999999999996
  endloop
endfacet
facet normal -5.779338584022081e-17 -0.9284766908852594 0.3713906763541039
  outer loop
    vertex 0.9999999999999996 0.9999999999999999 9.999999999999996
    vertex 2.9999999999999987 5.000000000000002 19.999999999999996
    vertex 0.9999999999999996 5.000000000000002 19.999999999999996
  endloop
endfacet
endsolid test
