solid test
facet normal -1.0 -0.0 -0.0
  outer loop
    vertex 36.51274103785678 -29.252966824721558 6.0
    vertex 36.51274103785678 -31.252966824721558 3.0
    vertex 36.51274103785678 -31.252966824721558 6.0
  endloop
endfacet
facet normal -1.0 -0.0 -0.0
  outer loop
    vertex 36.51274103785678 -31.252966824721558 3.0
    vertex 36.51274103785678 -29.252966824721558 6.0
    vertex 36.51274103785678 -29.252966824721558 3.0
  endloop
endfacet
facet normal 0.0 0.0 1.0
  outer loop
    vertex 37.51274103785678 -31.252966824721558 6.0
    vertex 36.51274103785678 -29.252966824721558 6.0
    vertex 36.51274103785678 -31.252966824721558 6.0
  endloop
endfacet
facet normal 0.0 0.0 1.0
  outer loop
    vertex 36.51274103785678 -29.252966824721558 6.0
    vertex 37.51274103785678 -31.252966824721558 6.0
    vertex 37.51274103785678 -29.252966824721558 6.0
  endloop
endfacet
facet normal 0.0 0.0 -1.0
  outer loop
    vertex 32.51274103785678 -29.252966824721558 0.9999999999999999
    vertex 34.51274103785678 -31.252966824721558 0.9999999999999999
    vertex 32.51274103785678 -35.252966824721554 0.9999999999999999
  endloop
endfacet
facet normal 0.0 0.0 -1.0
  outer loop
    vertex 34.51274103785678 -31.252966824721558 0.9999999999999999
    vertex 32.51274103785678 -29.252966824721558 0.9999999999999999
    vertex 37.51274103785678 -29.252966824721558 0.9999999999999999
  endloop
endfacet
facet normal 0.0 0.0 -1.0
  outer loop
    vertex 34.51274103785678 -31.252966824721558 0.9999999999999999
    vertex 37.51274103785678 -29.252966824721558 0.9999999999999999
    vertex 37.51274103785678 -31.252966824721558 0.9999999999999999
  endloop
endfacet
facet normal 0.0 0.0 -1.0
  outer loop
    vertex 34.51274103785678 -35.252966824721554 0.9999999999999999
    vertex 32.51274103785678 -35.252966824721554 0.9999999999999999
    vertex 34.51274103785678 -31.252966824721558 0.9999999999999999
  endloop
endfacet
facet normal -0.0 -0.0 1.0
  outer loop
    vertex 36.51274103785678 -31.252966824721558 3.0
    vertex 34.51274103785678 -29.252966824721558 3.0
    vertex 34.51274103785678 -31.252966824721558 3.0
  endloop
endfacet
facet normal -0.0 -0.0 1.0
  outer loop
    vertex 34.51274103785678 -29.252966824721558 3.0
    vertex 36.51274103785678 -31.252966824721558 3.0
    vertex 36.51274103785678 -29.252966824721558 3.0
  endloop
endfacet
facet normal 0.0 1.0 1.7624790515924394e-16
  outer loop
    vertex 32.51274103785678 -33.25296682472156 4.999999999999999
    vertex 34.51274103785678 -33.25296682472156 3.0
    vertex 32.51274103785678 -33.25296682472156 3.0
  endloop
endfacet
facet normal 0.0 1.0 1.7624790515924394e-16
  outer loop
    vertex 34.51274103785678 -33.25296682472156 3.0
    vertex 32.51274103785678 -33.25296682472156 4.999999999999999
    vertex 34.51274103785678 -33.25296682472156 4.999999999999999
  endloop
endfacet
facet normal -0.0 -0.0 1.0
  outer loop
    vertex 32.512741037856784 -34.25296682472156 4.999999999999999
    vertex 34.51274103785678 -33.25296682472156 4.999999999999999
    vertex 32.51274103785678 -33.25296682472156 4.999999999999999
  endloop
endfacet
facet normal -0.0 -0.0 1.0
  outer loop
    vertex 34.51274103785678 -33.25296682472156 4.999999999999999
    vertex 32.512741037856784 -34.25296682472156 4.999999999999999
    vertex 34.51274103785678 -34.25296682472156 4.999999999999999
  endloop
endfacet
facet normal 0.0 -1.0 0.0
  outer loop
    vertex 34.51274103785678 -34.25296682472156 4.999999999999999
    vertex 32.512741037856784 -34.25296682472156 3.9999999999999996
    vertex 34.51274103785678 -34.25296682472156 3.9999999999999996
  endloop
endfacet
facet normal 0.0 -1.0 0.0
  outer loop
    vertex 32.512741037856784 -34.25296682472156 3.9999999999999996
    vertex 34.51274103785678 -34.25296682472156 4.999999999999999
    vertex 32.512741037856784 -34.25296682472156 4.999999999999999
  endloop
endfacet
facet normal -0.0 -0.0 1.0
  outer loop
    vertex 34.51274103785678 -35.252966824721554 3.9999999999999996
    vertex 32.512741037856784 -34.25296682472156 3.9999999999999996
    vertex 32.512741037856784 -35.252966824721554 3.9999999999999996
  endloop
endfacet
facet normal -0.0 -0.0 1.0
  outer loop
    vertex 32.512741037856784 -34.25296682472156 3.9999999999999996
    vertex 34.51274103785678 -35.252966824721554 3.9999999999999996
    vertex 34.51274103785678 -34.25296682472156 3.9999999999999996
  endloop
endfacet
facet normal 1.0 -0.0 -0.0
  outer loop
    vertex 34.51274103785678 -31.252966824721558 0.9999999999999999
    vertex 34.51274103785678 -35.252966824721554 3.9999999999999996
    vertex 34.51274103785678 -35.252966824721554 0.9999999999999999
  endloop
endfacet
facet normal 1.0 -0.0 -0.0
  outer loop
    vertex 34.51274103785678 -35.252966824721554 3.9999999999999996
    vertex 34.51274103785678 -31.252966824721558 0.9999999999999999
    vertex 34.51274103785678 -33.25296682472156 3.0
  endloop
endfacet
facet normal 1.0 -0.0 -0.0
  outer loop
    vertex 34.51274103785678 -35.252966824721554 3.9999999999999996
    vertex 34.51274103785678 -33.25296682472156 3.0
    vertex 34.51274103785678 -34.25296682472156 3.9999999999999996
  endloop
endfacet
facet normal 1.0 -0.0 -0.0
  outer loop
    vertex 34.51274103785678 -34.25296682472156 3.9999999999999996
    vertex 34.51274103785678 -33.25296682472156 3.0
    vertex 34.51274103785678 -34.25296682472156 4.999999999999999
  endloop
endfacet
facet normal 1.0 -0.0 -0.0
  outer loop
    vertex 34.51274103785678 -33.25296682472156 3.0
    vertex 34.51274103785678 -31.252966824721558 0.9999999999999999
    vertex 34.51274103785678 -31.252966824721558 3.0
  endloop
endfacet
facet normal 1.0 -0.0 -0.0
  outer loop
    vertex 34.51274103785678 -33.25296682472156 4.999999999999999
    vertex 34.51274103785678 -34.25296682472156 4.999999999999999
    vertex 34.51274103785678 -33.25296682472156 3.0
  endloop
endfacet
facet normal 0.0 -1.0 0.0
  outer loop
    vertex 34.51274103785678 -35.252966824721554 3.9999999999999996
    vertex 32.51274103785678 -35.252966824721554 0.9999999999999999
    vertex 34.51274103785678 -35.252966824721554 0.9999999999999999
  endloop
endfacet
facet normal 0.0 -1.0 0.0
  outer loop
    vertex 32.51274103785678 -35.252966824721554 0.9999999999999999
    vertex 34.51274103785678 -35.252966824721554 3.9999999999999996
    vertex 32.512741037856784 -35.252966824721554 3.9999999999999996
  endloop
endfacet
facet normal -6.164128370741632e-33 1.762479051592434e-16 1.0
  outer loop
    vertex 34.51274103785678 -33.25296682472156 3.0
    vertex 32.51274103785678 -31.252966824721558 3.0
    vertex 32.51274103785678 -33.25296682472156 3.0
  endloop
endfacet
facet normal -6.164128370741632e-33 1.762479051592434e-16 1.0
  outer loop
    vertex 32.51274103785678 -31.252966824721558 3.0
    vertex 34.51274103785678 -33.25296682472156 3.0
    vertex 34.51274103785678 -31.252966824721558 3.0
  endloop
endfacet
facet normal 0.0 -1.0 0.0
  outer loop
    vertex 34.51274103785678 -31.252966824721558 7.0
    vertex 32.51274103785678 -31.252966824721558 3.0
    vertex 34.51274103785678 -31.252966824721558 3.0
  endloop
endfacet
facet normal 0.0 -1.0 0.0
  outer loop
    vertex 32.51274103785678 -31.252966824721558 3.0
    vertex 34.51274103785678 -31.252966824721558 7.0
    vertex 32.51274103785678 -31.252966824721558 7.0
  endloop
endfacet
facet normal 0.0 -1.0 0.0
  outer loop
    vertex 34.51274103785678 -31.252966824721558 3.0
    vertex 34.51274103785678 -31.252966824721558 0.9999999999999999
    vertex 36.51274103785678 -31.252966824721558 3.0
  endloop
endfacet
facet normal 0.0 -1.0 0.0
  outer loop
    vertex 37.51274103785678 -31.252966824721558 0.9999999999999999
    vertex 36.51274103785678 -31.252966824721558 3.0
    vertex 34.51274103785678 -31.252966824721558 0.9999999999999999
  endloop
endfacet
facet normal 0.0 -1.0 0.0
  outer loop
    vertex 36.51274103785678 -31.252966824721558 3.0
    vertex 37.51274103785678 -31.252966824721558 0.9999999999999999
    vertex 37.51274103785678 -31.252966824721558 6.0
  endloop
endfacet
facet normal 0.0 -1.0 0.0
  outer loop
    vertex 36.51274103785678 -31.252966824721558 3.0
    vertex 37.51274103785678 -31.252966824721558 6.0
    vertex 36.51274103785678 -31.252966824721558 6.0
  endloop
endfacet
facet normal 1.0 -0.0 0.0
  outer loop
    vertex 34.51274103785678 -29.252966824721558 3.0
    vertex 34.51274103785678 -31.252966824721558 7.0
    vertex 34.51274103785678 -31.252966824721558 3.0
  endloop
endfacet
facet normal 1.0 -0.0 0.0
  outer loop
    vertex 34.51274103785678 -31.252966824721558 7.0
    vertex 34.51274103785678 -29.252966824721558 3.0
    vertex 34.51274103785678 -29.252966824721558 7.0
  endloop
endfacet
facet normal 0.0 0.0 1.0
  outer loop
    vertex 34.51274103785678 -31.252966824721558 7.0
    vertex 32.51274103785678 -29.252966824721558 7.0
    vertex 32.51274103785678 -31.252966824721558 7.0
  endloop
endfacet
facet normal 0.0 0.0 1.0
  outer loop
    vertex 32.51274103785678 -29.252966824721558 7.0
    vertex 34.51274103785678 -31.252966824721558 7.0
    vertex 34.51274103785678 -29.252966824721558 7.0
  endloop
endfacet
facet normal 1.0 0.0 0.0
  outer loop
    vertex 37.51274103785678 -29.252966824721558 0.9999999999999999
    vertex 37.51274103785678 -31.252966824721558 6.0
    vertex 37.51274103785678 -31.252966824721558 0.9999999999999999
  endloop
endfacet
facet normal 1.0 0.0 0.0
  outer loop
    vertex 37.51274103785678 -31.252966824721558 6.0
    vertex 37.51274103785678 -29.252966824721558 0.9999999999999999
    vertex 37.51274103785678 -29.252966824721558 6.0
  endloop
endfacet
facet normal -0.0 1.0 0.0
  outer loop
    vertex 32.51274103785678 -29.252966824721558 0.9999999999999999
    vertex 34.51274103785678 -29.252966824721558 3.0
    vertex 37.51274103785678 -29.252966824721558 0.9999999999999999
  endloop
endfacet
facet normal -0.0 1.0 0.0
  outer loop
    vertex 34.51274103785678 -29.252966824721558 3.0
    vertex 32.51274103785678 -29.252966824721558 0.9999999999999999
    vertex 32.51274103785678 -29.252966824721558 7.0
  endloop
endfacet
facet normal -0.0 1.0 0.0
  outer loop
    vertex 34.51274103785678 -29.252966824721558 3.0
    vertex 32.51274103785678 -29.252966824721558 7.0
    vertex 34.51274103785678 -29.252966824721558 7.0
  endloop
endfacet
facet normal -0.0 1.0 0.0
  outer loop
    vertex 37.51274103785678 -29.252966824721558 0.9999999999999999
    vertex 36.51274103785678 -29.252966824721558 3.0
    vertex 37.51274103785678 -29.252966824721558 6.0
  endloop
endfacet
facet normal -0.0 1.0 0.0
  outer loop
    vertex 36.51274103785678 -29.252966824721558 3.0
    vertex 37.51274103785678 -29.252966824721558 0.9999999999999999
    vertex 34.51274103785678 -29.252966824721558 3.0
  endloop
endfacet
facet normal -0.0 1.0 0.0
  outer loop
    vertex 37.51274103785678 -29.252966824721558 6.0
    vertex 36.51274103785678 -29.252966824721558 3.0
    vertex 36.51274103785678 -29.252966824721558 6.0
  endloop
endfacet
facet normal -1.0 -4.705519397529507e-16 1.8509863032935977e-16
  outer loop
    vertex 32.51274103785678 -33.25296682472156 4.999999999999999
    vertex 32.512741037856784 -34.25296682472156 3.9999999999999996
    vertex 32.512741037856784 -34.25296682472156 4.999999999999999
  endloop
endfacet
facet normal -1.0 -4.705519397529507e-16 1.8509863032935977e-16
  outer loop
    vertex 32.51274103785678 -29.252966824721558 7.0
    vertex 32.51274103785678 -31.252966824721558 3.0
    vertex 32.51274103785678 -31.252966824721558 7.0
  endloop
endfacet
facet normal -1.0 -4.705519397529507e-16 1.8509863032935977e-16
  outer loop
    vertex 32.512741037856784 -34.25296682472156 3.9999999999999996
    vertex 32.51274103785678 -35.252966824721554 0.9999999999999999
    vertex 32.512741037856784 -35.252966824721554 3.9999999999999996
  endloop
endfacet
facet normal -1.0 -4.705519397529507e-16 1.8509863032935977e-16
  outer loop
    vertex 32.51274103785678 -35.252966824721554 0.9999999999999999
    vertex 32.512741037856784 -34.25296682472156 3.9999999999999996
    vertex 32.51274103785678 -33.25296682472156 3.0
  endloop
endfacet
facet normal -1.0 -4.705519397529507e-16 1.8509863032935977e-16
  outer loop
    vertex 32.51274103785678 -35.252966824721554 0.9999999999999999
    vertex 32.51274103785678 -33.25296682472156 3.0
    vertex 32.51274103785678 -29.252966824721558 0.9999999999999999
  endloop
endfacet
facet normal -1.0 -4.705519397529507e-16 1.8509863032935977e-16
  outer loop
    vertex 32.51274103785678 -33.25296682472156 3.0
    vertex 32.512741037856784 -34.25296682472156 3.9999999999999996
    vertex 32.51274103785678 -33.25296682472156 4.999999999999999
  endloop
endfacet
facet normal -1.0 -4.705519397529507e-16 1.8509863032935977e-16
  outer loop
    vertex 32.51274103785678 -29.252966824721558 0.9999999999999999
    vertex 32.51274103785678 -33.25296682472156 3.0
    vertex 32.51274103785678 -31.252966824721558 3.0
  endloop
endfacet
facet normal -1.0 -4.705519397529507e-16 1.8509863032935977e-16
  outer loop
    vertex 32.51274103785678 -29.252966824721558 0.9999999999999999
    vertex 32.51274103785678 -31.252966824721558 3.0
    vertex 32.51274103785678 -29.252966824721558 7.0
  endloop
endfacet
endsolid test
